<?xml version="1.0" encoding="UTF-8"?>
<svg id="b" data-name="Ebene 1" xmlns="http://www.w3.org/2000/svg" viewBox="0 0 60 60">
  <g>
    <path d="M30,31.64c4.8,0,8.7,3.9,8.7,8.7s-3.9,8.7-8.7,8.7-8.7-3.9-8.7-8.7,3.9-8.7,8.7-8.7M30,30.29c-5.55,0-10.05,4.5-10.05,10.05s4.5,10.05,10.05,10.05,10.05-4.5,10.05-10.05-4.5-10.05-10.05-10.05h0Z"/>
    <path d="M30,54.34c-7.72,0-14-6.28-14-14s6.28-14,14-14,14,6.28,14,14-6.28,14-14,14ZM30,29.03c-6.23,0-11.3,5.07-11.3,11.3s5.07,11.3,11.3,11.3,11.31-5.07,11.31-11.3-5.07-11.3-11.31-11.3Z"/>
  </g>
  <g>
    <path d="M27.56,15.2c-1.51,1.51-2.61,2.61-2.61,2.61l-1.65-1.65c-.21-.21-.54-.21-.75,0l-.36.36c-.21.21-.21.54,0,.75l1.98,1.98-3.64,3.64c-.21.21-.21.54,0,.75l.65.65c.21.21.54.21.75,0l3.64-3.64,1.98,1.98c.21.21.54.21.75,0l.36-.36c.21-.21.21-.54,0-.75l-1.65-1.65,2.61-2.61-2.06-2.06Z"/>
    <path d="M38.47,8.4c.52-.52.68-2.74.68-2.74,0,0-2.22.16-2.74.68-.43.43-3.28,3.28-6.03,6.03l2.06,2.06c2.75-2.75,5.6-5.6,6.03-6.03Z"/>
    <path d="M39.48,22.91l-3.64-3.64,1.98-1.98c.21-.21.21-.54,0-.75l-.36-.36c-.1-.1-.24-.16-.38-.16s-.27.05-.38.16l-1.65,1.65s-10.61-10.61-11.47-11.47c-.52-.52-2.74-.68-2.74-.68,0,0,.16,2.22.68,2.74l11.47,11.47-1.65,1.65c-.21.21-.21.54,0,.75l.36.36c.1.1.24.16.38.16s.27-.05.38-.16l1.98-1.98,3.64,3.64c.1.1.24.16.38.16s.27-.05.38-.16l.65-.65c.21-.21.21-.54,0-.75Z"/>
  </g>
</svg>