<?xml version="1.0" encoding="UTF-8"?>
<svg id="a" data-name="Ebene 1" xmlns="http://www.w3.org/2000/svg" viewBox="0 0 60 60">
  <defs>
    <style>
      .b {
        fill: #fcee21;
        stroke-width: 0px;
      }
    </style>
  </defs>
  <polygon class="b" points="35.65 24.35 50.17 30 35.65 35.65 30 50.17 24.35 35.65 9.83 30 24.35 24.35 30 9.83 35.65 24.35"/>
  <path class="b" d="M30,5.44l6.57,16.87.31.81.81.31,16.87,6.57-16.87,6.57-.81.31-.31.81-6.57,16.87-6.57-16.87-.31-.81-.81-.31-16.87-6.57,16.87-6.57.81-.31.31-.81,6.57-16.87M30,0l-8.41,21.59L0,30l21.59,8.41,8.41,21.59,8.41-21.59,21.59-8.41-21.59-8.41L30,0h0Z"/>
  <circle class="b" cx="46.81" cy="9.1" r="3.95"/>
</svg>