<?xml version="1.0" encoding="UTF-8"?>
<svg id="a" data-name="Ebene 1" xmlns="http://www.w3.org/2000/svg" viewBox="0 0 35 35">
  <defs>
    <style>
      .cls-1 {
        fill: #fff;
        stroke-width: 0px;
      }
    </style>
  </defs>
  <path class="cls-1" d="M13.25,5.01c4.54,0,8.24,3.7,8.24,8.24s-3.7,8.24-8.24,8.24-8.24-3.7-8.24-8.24,3.7-8.24,8.24-8.24M13.25,3.74C8,3.74,3.74,8,3.74,13.25s4.26,9.51,9.51,9.51,9.51-4.26,9.51-9.51S18.5,3.74,13.25,3.74h0Z"/>
  <path class="cls-1" d="M13.25,26.5C5.94,26.5,0,20.56,0,13.25S5.94,0,13.25,0s13.25,5.94,13.25,13.25-5.94,13.25-13.25,13.25ZM13.25,2.55C7.36,2.55,2.55,7.35,2.55,13.25s4.79,10.7,10.7,10.7,10.7-4.79,10.7-10.7S19.15,2.55,13.25,2.55Z"/>
</svg>