<?xml version="1.0" encoding="utf-8"?>
<!-- Generator: Adobe Illustrator 28.3.0, SVG Export Plug-In . SVG Version: 6.00 Build 0)  -->
<svg version="1.1" id="Ebene_1" xmlns="http://www.w3.org/2000/svg" xmlns:xlink="http://www.w3.org/1999/xlink" x="0px" y="0px"
	 viewBox="0 0 12 12" style="enable-background:new 0 0 12 12;" xml:space="preserve">
<style type="text/css">
	.st0{fill:#663200;}
</style>
<path id="XMLID_00000036222299814848102580000011887730690249974204_" class="st0" d="M10.1,1c0.5,0,1,0.4,1,1v5.1c0,0.5-0.4,1-1,1
	H4.9c-0.5,0-1-0.4-1-1V1.9c0-0.5,0.4-1,1-1H10.1 M10.1,0H4.9C3.9,0,3,0.9,3,1.9v5.1C3,8.1,3.9,9,4.9,9h5.1C11.1,9,12,8.1,12,7.1V1.9
	C12,0.9,11.1,0,10.1,0L10.1,0z"/>
<path id="XMLID_00000023979981148807017330000010210683554568862604_" class="st0" d="M8,10L8,10c0,0.6-0.4,1-1,1H1.9
	c-0.5,0-1-0.4-1-1V4.9c0-0.5,0.4-1,1-1H2V3H1.9C0.9,3,0,3.9,0,4.9v5.1C0,11.1,0.9,12,1.9,12h5.1C8.1,12,9,11.1,9,10.1V10H8z"/>
</svg>
