<?xml version="1.0" encoding="utf-8"?>
<!-- Generator: Adobe Illustrator 28.3.0, SVG Export Plug-In . SVG Version: 6.00 Build 0)  -->
<svg version="1.1" id="Layer_1" xmlns="http://www.w3.org/2000/svg" xmlns:xlink="http://www.w3.org/1999/xlink" x="0px" y="0px"
	 viewBox="0 0 924 924" style="enable-background:new 0 0 924 924;" xml:space="preserve">
<style type="text/css">
	.st0{fill:#FFFFFF;}
</style>
<g id="Layer_2">
	<g id="XMLID_00000140727858837557343880000005750911067577153182_">
		<rect id="XMLID_00000107574327957862781560000003394523488942265775_" x="327" y="433" class="st0" width="270" height="58"/>
	</g>
	<g id="XMLID_00000078748807938876170940000016831660299537479050_">
		<path id="XMLID_00000025429630656081961270000011229451004587546811_" class="st0" d="M462,37l390.4,34.7L887,462l-34.7,390.4
			L462,887L71.7,852.4L37,462L71.7,71.7L462,37 M462,0L37.7,37.7L0,462l37.7,424.3L462,924l424.3-37.7L924,462L886.3,37.7L462,0
			L462,0z"/>
	</g>
	<g id="XMLID_00000065050362708793725480000004728245805421400225_">
		<path id="XMLID_00000092438424701117083350000005570723472175228348_" class="st0" d="M462,49l413,413L462,875L49,462L462,49
			 M462,0L0,462l462,462l462-462L462,0L462,0z"/>
	</g>
</g>
</svg>
