<?xml version="1.0" encoding="UTF-8"?>
<svg id="a" data-name="svg1" xmlns="http://www.w3.org/2000/svg" viewBox="0 0 199 200">
  <defs>
    <style>
      .b {
        fill: #ffd000;
      }

      .c, .d {
        fill: none;
        stroke: #ffd000;
        stroke-miterlimit: 10;
        stroke-width: 14px;
      }

      .d {
        stroke-linecap: square;
      }
    </style>
  </defs>
  <g>
    <line class="c" x1="192" y1="7" x2="62" y2="137"/>
    <line class="d" x1="192" y1="7" x2="99.52" y2="7"/>
    <line class="d" x1="192" y1="99.48" x2="192" y2="7"/>
  </g>
  <g>
    <path class="b" d="M122.01,52.95c-23.75-18.55-53.61-29.61-86.01-29.61-12.21,0-24.31,1.59-36,4.7v16.64c.73-.22,1.44-.46,2.18-.67,10.95-3.1,22.33-4.67,33.82-4.67,27.99,0,53.83,9.32,74.6,25.02l11.41-11.41Z"/>
    <path class="b" d="M134.69,88.35c15.87,20.84,25.31,46.83,25.31,74.98,0,11.72-1.63,23.31-4.85,34.45-.22.75-.46,1.48-.69,2.22h16.66c3.22-11.9,4.87-24.22,4.87-36.67,0-32.57-11.18-62.58-29.9-86.39l-11.41,11.41Z"/>
  </g>
</svg>