<?xml version="1.0" encoding="utf-8"?>
<!-- Generator: Adobe Illustrator 28.3.0, SVG Export Plug-In . SVG Version: 6.00 Build 0)  -->
<svg version="1.1" id="Layer_2" xmlns="http://www.w3.org/2000/svg" xmlns:xlink="http://www.w3.org/1999/xlink" x="0px" y="0px"
	 viewBox="0 0 810.3 855.1" style="enable-background:new 0 0 810.3 855.1;" xml:space="preserve">
<style type="text/css">
	.st0{fill:#FFFFFF;}
	.st1{opacity:0.75;}
	.st2{opacity:0.5;}
</style>
<g id="XMLID_00000012473980989683961320000015972111857599307916_">
	<path id="XMLID_00000129173379171889540370000001343251502852305026_" class="st0" d="M430.1,855.1h-55
		c-18.7,0-39.2-15.2-55.7-27.5c-6.4-4.7-12.9-9.6-16.6-11.3c-12.7-6-36.1-28.6-58.9-51.1c-3.3-3.3-6.2-6.1-8.1-8
		c-8.3-7.9-28.2-18-43.1-24c-16.4-6.5-18.9-23.4-20.3-32.4c-0.3-1.8-0.5-3.6-0.8-4.6c-1.6-4.9-15.7-25.7-23.6-34.7
		c-9.7-11-12.7-31-16.1-54.1l-0.1-0.9c-2.7-18-44.9-110.1-59.5-129.8c-0.8-1.1-1.7-2.3-2.7-3.6c-7.6-9.9-20.2-26.4-23.4-44.3
		c-2.4-8-28.1-61.9-38.7-83.4c-8.5-17.3-10.7-74.3-1.3-95.3c9.4-21.2,49.1-61,68.9-71.9c4-2.2,14.5-8,86.7-13
		c38.7-2.7,77-3.9,91.9-3.9c34.9,0,84,33,110.3,50.7c3.8,2.6,7.1,4.8,9.4,6.2c42.5,26.9,73.3,66.8,88,86c2.5,3.3,4.5,5.9,5.9,7.5
		c10.4,12.4,57.8,100.9,62.7,129.2c1.4,8.4,1.3,25.9,1,53.7c-0.3,20.5-0.7,54.6,1.3,61.3c1.4,3.1,5.8,8.6,9.6,13.5
		c9.5,12.1,20.3,25.8,20.3,40.2v50c0,28.4-44.3,97.6-53.2,111.2c-14.2,21.8-28.8,41.6-40.9,55.9C447,851.7,437.4,855.1,430.1,855.1z
		 M253.6,186.4c-14.1,0-52.4,1.2-90,3.8c-64.8,4.5-75.5,9.4-76.5,10c-16.7,9.2-51.5,45.2-58.1,60.1c-6.5,14.7-4.1,63.9,0.9,74.1
		c1.6,3.2,39.1,79.5,40.8,89.9c2,12,12.4,25.5,18.6,33.6c1.1,1.4,2.1,2.7,3,3.9c15.7,21.2,60.6,117.5,64.1,141l0.1,0.9
		c2.2,15.1,5.3,35.8,10.1,41.3c5.7,6.5,25.9,33,29,44.7c0.6,2.3,1,4.8,1.4,7.3c1,6.7,2,11.8,4.9,13c5.9,2.4,36.3,15,51.1,29.1
		c2.1,2,4.9,4.7,8.4,8.3c12.6,12.5,42.1,41.6,52,46.3c5.9,2.8,12.8,7.9,20.8,13.8c12.1,9,30.4,22.6,40.8,22.6h53.9
		c7.4-3.5,30.9-29,61.8-77.1c30.4-47.2,46.2-82.6,46.2-93.1v-50c0-5.7-9-17.2-15-24.8c-5.3-6.8-10.4-13.2-13-19.3
		c-3.7-8.5-3.8-28.3-3.3-71.4c0.2-19.9,0.5-42.4-0.6-49.2c-3.9-22.8-49.1-107.6-57.2-117.3c-1.7-2-3.8-4.8-6.5-8.3
		c-13.9-18.1-42.8-55.7-81.6-80.2c-2.6-1.6-5.8-3.8-10-6.6C329.3,218.9,280.9,186.4,253.6,186.4z"/>
</g>
<g id="XMLID_00000154406176945613264800000009438636627729253023_" class="st1">
	<path id="XMLID_00000129926118836752282030000007253052679543586944_" class="st0" d="M621.3,349.7c-19.9,0-47.5-18.3-86.8-57.7
		c-17.5-17.5-16.8-61.2-14.4-108.3c0.4-7.6,0.7-14.2,0.7-18.5c0-22.9,21.1-67.4,33.6-91.9c8.3-16.3,17.2-32,24.8-44.2
		C592.4,8.3,597.1,5.4,601.5,4c8.2-2.7,16.6-4,25-4c13.1,0,26,3.2,38.2,9.7c1.2,0.4,5.7,1.1,12.2,1.1c4.9,0,8-0.4,9.3-0.7
		c5.1-3.6,11.5-5.4,19.2-5.4c7,0,14.8,1.5,22.7,4.4c12.6,4.6,29.9,23.2,57.5,55.7c4.4,5.2,9.4,11.2,10.8,12.4
		c7.4,6.7,13.6,24.1,14,39.7c0.4,13.8-3.6,25.2-11.5,33.1c-3.6,3.6-18.8,27.1-31,45.9c-16.5,25.5-35.2,54.3-46.1,67.8
		c-0.6,0.7-2.5,3.7-4.1,6.2C702.1,293.9,665.8,349.7,621.3,349.7z M611.1,27.2c-5.2,5.7-20.3,29.3-36.7,61.9
		c-21.1,41.9-28.6,66.8-28.6,76.1c0,4.9-0.3,11.8-0.8,19.8c-0.8,16.2-1.8,36.3-0.9,54.5c1.4,26.4,6.4,33.4,8,34.9
		c46.7,46.7,64.7,50.3,69.2,50.3c30.9,0,64.3-51.4,75.2-68.3c2.7-4.2,4.3-6.7,5.7-8.4c10.1-12.4,28.4-40.7,44.6-65.7
		c18.5-28.5,29.2-44.9,34.3-50c3.5-3.5,4.9-10.4,3.9-19c-1.1-8.9-4.3-16.1-5.6-17.7c-2.4-2.2-5.9-6.4-12.9-14.6
		c-9.4-11.2-38.1-45.1-47-48.4c-5.1-1.9-10.1-2.9-14.1-2.9c-3.7,0-4.9,0.9-4.9,0.9c-1.9,1.5-6.4,5.2-23.6,5.2
		c-7.4,0-17.5-0.7-23.6-3.9C639.8,24.8,625.4,23.1,611.1,27.2z"/>
</g>
<g id="XMLID_00000058572324894320865020000011853455883334722730_" class="st2">
	<path id="XMLID_00000040536674665220414780000001594738525043860143_" class="st0" d="M680.6,553.4c-17.5,0-31.2-2-42.1-6.2
		c-17.5-6.7-27.1-19.5-27.1-36c0-27,34.9-53.5,60.3-72.8c6.3-4.8,14.1-10.7,16.1-13c6.8-12.3,28.4-35.4,49.4-35.4
		c25.8,0,46.5,28,46.5,51.2c0,23.8-13.8,36.6-22,44.2c-1,1-2.4,2.2-3.2,3.1c-0.1,1.6,0,4.2,0,6.3c0.2,8.3,0.5,19.7-3.4,31.4
		C747.3,549.9,705.1,553.4,680.6,553.4z M737.3,415.1c-7.9,0-23.2,14.4-27.6,22.7c-2.8,5.3-9,10.1-22.7,20.5
		c-10.8,8.2-24.3,18.5-34.8,28.9c-14.2,14.1-15.7,21.5-15.7,24c0,14.2,24,17.2,44.2,17.2c31.3,0,48.7-6.7,50.8-10.2
		c2.5-7.6,2.3-15.7,2.1-22.8c-0.2-7.6-0.3-14.2,3.2-19.7c2.1-3.2,4.9-5.8,7.9-8.6c6.9-6.4,14-13,14-25.9
		C758.8,431.6,748.2,415.1,737.3,415.1z"/>
</g>
</svg>
