<?xml version="1.0" encoding="utf-8"?>
<!-- Generator: Adobe Illustrator 28.3.0, SVG Export Plug-In . SVG Version: 6.00 Build 0)  -->
<svg version="1.1" id="Layer_1" xmlns="http://www.w3.org/2000/svg" xmlns:xlink="http://www.w3.org/1999/xlink" x="0px" y="0px"
	 viewBox="0 0 910 910" style="enable-background:new 0 0 910 910;" xml:space="preserve">
<style type="text/css">
	.st0{fill:#FFFFFF;}
</style>
<g id="Layer_4">
	<path id="XMLID_00000122710815614847420620000016938369152594575293_" class="st0" d="M455,41c228.6,0,414,185.4,414,414
		c0,228.6-185.4,414-414,414S41,683.6,41,455C41,226.4,226.4,41,455,41 M455,0c-61.4,0-121,12-177.1,35.8
		C223.7,58.7,175,91.5,133.3,133.3s-74.6,90.4-97.5,144.6C12,334,0,393.6,0,455s12,121,35.8,177.1c22.9,54.2,55.7,102.8,97.5,144.6
		c41.8,41.8,90.4,74.6,144.6,97.5C334,898,393.6,910,455,910s121-12,177.1-35.8c54.2-22.9,102.8-55.7,144.6-97.5
		c41.8-41.8,74.6-90.4,97.5-144.6C898,576,910,516.4,910,455s-12-121-35.8-177.1c-22.9-54.2-55.7-102.8-97.5-144.6
		C735,91.5,686.3,58.7,632.1,35.8C576,12,516.4,0,455,0L455,0z"/>
	<g id="XMLID_00000010285422271430924690000008891727372128411292_">
		<path id="XMLID_00000090979356243332059740000017341645909227624884_" class="st0" d="M455,270c102.2,0,185,82.8,185,185
			s-82.8,185-185,185s-185-82.8-185-185S352.8,270,455,270 M455,230c-30.4,0-59.8,6-87.6,17.7c-26.8,11.3-50.9,27.6-71.5,48.2
			c-20.7,20.7-36.9,44.7-48.2,71.5C236,395.2,230,424.6,230,455c0,30.4,6,59.8,17.7,87.6c11.3,26.8,27.6,50.9,48.2,71.5
			c20.7,20.7,44.7,36.9,71.5,48.2C395.2,674,424.6,680,455,680c30.4,0,59.8-6,87.6-17.7c26.8-11.3,50.9-27.6,71.5-48.2
			c20.7-20.7,36.9-44.7,48.2-71.5C674,514.8,680,485.4,680,455c0-30.4-6-59.8-17.7-87.6c-11.3-26.8-27.6-50.9-48.2-71.5
			c-20.7-20.7-44.7-36.9-71.5-48.2C514.8,236,485.4,230,455,230L455,230z"/>
	</g>
	<g id="XMLID_00000121981549067751121610000015233833616093941920_">
		<rect id="XMLID_00000036216229927000983010000000894528936747172275_" x="325" y="425" class="st0" width="260" height="61"/>
	</g>
</g>
</svg>
