<?xml version="1.0" encoding="utf-8"?>
<!-- Generator: Adobe Illustrator 28.3.0, SVG Export Plug-In . SVG Version: 6.00 Build 0)  -->
<svg version="1.1" id="Layer_1" xmlns="http://www.w3.org/2000/svg" xmlns:xlink="http://www.w3.org/1999/xlink" x="0px" y="0px"
	 viewBox="0 0 925 925" style="enable-background:new 0 0 925 925;" xml:space="preserve">
<style type="text/css">
	.st0{fill:#FFFFFF;}
	.st1{fill:none;stroke:#FFFFFF;stroke-width:30;stroke-miterlimit:10;}
</style>
<g id="Layer_4">
	<rect id="XMLID_00000000923439064297403470000007244099324326733723_" x="328.5" y="433.5" class="st0" width="268" height="58"/>
	<g id="XMLID_00000183225806783395182340000003437521217301669261_">
		<path id="XMLID_00000003822744010809688420000007914285799762684082_" class="st0" d="M462.5,302c88.6,0,160.5,71.9,160.5,160.5
			c0,88.6-71.9,160.5-160.5,160.5C373.9,623,302,551.1,302,462.5C302,373.9,373.9,302,462.5,302 M462.5,265.5
			c-26.6,0-52.4,5.2-76.7,15.5c-23.5,9.9-44.5,24.1-62.6,42.2c-18.1,18.1-32.3,39.1-42.2,62.6c-10.3,24.3-15.5,50.1-15.5,76.7
			c0,26.6,5.2,52.4,15.5,76.7c9.9,23.5,24.1,44.5,42.2,62.6c18.1,18.1,39.1,32.3,62.6,42.2c24.3,10.3,50.1,15.5,76.7,15.5
			s52.4-5.2,76.7-15.5c23.5-9.9,44.5-24.1,62.6-42.2c18.1-18.1,32.3-39.1,42.2-62.6c10.3-24.3,15.5-50.1,15.5-76.7
			c0-26.6-5.2-52.4-15.5-76.7c-9.9-23.5-24.1-44.5-42.2-62.6c-18.1-18.1-39.1-32.3-62.6-42.2C514.9,270.7,489.1,265.5,462.5,265.5
			L462.5,265.5z"/>
	</g>
	<path id="XMLID_00000081611692858200912500000008717267929442871965_" class="st0" d="M462.5,38.5c234.2,0,424,189.8,424,424
		s-189.8,424-424,424s-424-189.8-424-424S228.3,38.5,462.5,38.5 M462.5,0c-62.4,0-123,12.2-180,36.4c-55.1,23.3-104.5,56.6-147,99.1
		c-42.5,42.5-75.8,91.9-99.1,147C12.2,339.5,0,400.1,0,462.5s12.2,123,36.4,180c23.3,55.1,56.6,104.5,99.1,147
		c42.5,42.5,91.9,75.8,147,99.1c57,24.1,117.6,36.4,180,36.4s123-12.2,180-36.4c55.1-23.3,104.5-56.6,147-99.1
		c42.5-42.5,75.8-91.9,99.1-147c24.1-57,36.4-117.6,36.4-180s-12.2-123-36.4-180c-23.3-55.1-56.6-104.5-99.1-147
		c-42.5-42.5-91.9-75.8-147-99.1C585.5,12.2,524.9,0,462.5,0L462.5,0z"/>
	<line id="XMLID_00000043454794337719841600000006044972900569529524_" class="st1" x1="861.2" y1="667.1" x2="621.6" y2="550.9"/>
	<line id="XMLID_00000127751388984156630150000006585442526683462568_" class="st1" x1="462.4" y1="29.8" x2="462.5" y2="296.1"/>
	<line id="XMLID_00000074405625778921943950000014826324674498358971_" class="st1" x1="87.8" y1="678.9" x2="318.4" y2="545.7"/>
</g>
</svg>
