<?xml version="1.0" encoding="utf-8"?>
<!-- Generator: Adobe Illustrator 28.3.0, SVG Export Plug-In . SVG Version: 6.00 Build 0)  -->
<svg version="1.1" id="Layer_1" xmlns="http://www.w3.org/2000/svg" xmlns:xlink="http://www.w3.org/1999/xlink" x="0px" y="0px"
	 viewBox="0 0 960 960" style="enable-background:new 0 0 960 960;" xml:space="preserve">
<style type="text/css">
	.st0{fill:#FFFFFF;}
	.st1{fill:none;stroke:#FFFFFF;stroke-width:30;stroke-miterlimit:10;}
	.st2{fill:none;stroke:#FFFFFF;stroke-width:30;stroke-linejoin:bevel;stroke-miterlimit:10;}
</style>
<g id="Layer_4">
	<g id="XMLID_00000052084979202409360210000010828338628871719555_">
		<path id="XMLID_00000111191685591986715180000004603026512869229967_" class="st0" d="M925,35v890H35V35H925 M960,0H0v960h960V0
			L960,0z"/>
	</g>
	<rect id="XMLID_00000123409195325668237340000014410389843896265606_" x="157" y="357" class="st0" width="90" height="188"/>
	<rect id="XMLID_00000020362120260435622800000017703860749029245364_" x="272" y="357" class="st0" width="90" height="188"/>
	<rect id="XMLID_00000181088646360372933320000016733261743887489410_" x="388" y="357" class="st0" width="90" height="188"/>
	<rect id="XMLID_00000065069484460783072400000011084027908086139305_" x="503" y="357" class="st0" width="90" height="188"/>
	<line id="XMLID_00000069381953216301887680000011212317776639404979_" class="st1" x1="243" y1="444" x2="621" y2="444"/>
	<line id="XMLID_00000077286183071888854760000013401426956576204984_" class="st1" x1="705" y1="60" x2="705" y2="370"/>
	<line id="XMLID_00000120524242942600957490000001625363630447512967_" class="st1" x1="658" y1="60" x2="658" y2="106"/>
	<line id="XMLID_00000143611610629004340410000018227989169798613657_" class="st1" x1="752" y1="60" x2="752" y2="106"/>
	<g id="XMLID_00000156548232231432060450000003430257977553384327_">
		<path id="XMLID_00000031921705549517380090000013407867221203230107_" class="st0" d="M766,400v329h-43.7L647,654.9V400H766
			 M796,370H617v297.5l93,91.5h86V370L796,370z"/>
	</g>
	<line id="XMLID_00000029011520736057650060000002571395556699252901_" class="st1" x1="710" y1="269" x2="760" y2="269"/>
	<line id="XMLID_00000151503348820628664350000016583605061118686363_" class="st1" x1="760" y1="221" x2="760" y2="308"/>
	<line id="XMLID_00000119084044509146026650000001390193811341810870_" class="st2" x1="781" y1="738" x2="781" y2="883"/>
</g>
</svg>
