<?xml version="1.0" encoding="UTF-8"?>
<svg xmlns="http://www.w3.org/2000/svg" viewBox="0 0 40 40" width="40" height="40">
  <symbol id="Stronghold-Carrier" viewBox="0 0 40 40">
    <polygon fill="currentColor" points="23.77 16.23 33.44 20 23.77 23.77 20 33.44 16.23 23.77 6.56 20 16.23 16.23 20 6.56 23.77 16.23"/>
    <path fill="currentColor" d="M20,3.62l4.38,11.25.21.54.54.21,11.25,4.38-11.25,4.38-.54.21-.21.54-4.38,11.25-4.38-11.25-.21-.54-.54-.21-11.25-4.38,11.25-4.38.54-.21.21-.54,4.38-11.25M20,0l-5.61,14.39L0,20l14.39,5.61,5.61,14.39,5.61-14.39,14.39-5.61-14.39-5.61L20,0h0Z"/>
    <circle fill="currentColor" cx="31.2" cy="6.07" r="2.63"/>
  </symbol>

  <symbol id="Stronghold" viewBox="0 0 40 40">
    <polygon fill="currentColor" points="25.61 14.39 40 20 25.61 25.61 20 40 14.39 25.61 0 20 14.39 14.39 20 0 25.61 14.39"/>
  </symbol>

  <symbol id="Fortified" viewBox="0 0 40 40">
    <polygon fill="currentColor" points="9.71 5.6 30.29 5.6 20 23.23 9.71 5.6"/>
    <path fill="currentColor" d="M33.86,3.53l-13.86,23.74L6.14,3.53h27.72M0,0l20,34.26L40,0H0Z"/>
  </symbol>

  <symbol id="Exploited" viewBox="0 0 40 40">
     <polygon fill="currentColor" points="0 0 40 0 20 34.26 0 0"/>
  </symbol>

  <symbol id="Unoccupied" viewBox="0 0 40 40">
    <path fill="currentColor" d="M17.5,35C7.85,35,0,27.15,0,17.5S7.85,0,17.5,0s17.5,7.85,17.5,17.5-7.85,17.5-17.5,17.5ZM17.5,3.37c-7.79,0-14.13,6.34-14.13,14.13s6.34,14.13,14.13,14.13,14.13-6.34,14.13-14.13S25.29,3.37,17.5,3.37Z"/>
  </symbol>

  <symbol id="Unoccupied-Expansion" viewBox="0 0 40 40">
    <path fill="currentColor" d="M17.5,6.62c6,0,10.88,4.88,10.88,10.88s-4.88,10.88-10.88,10.88-10.88-4.88-10.88-10.88,4.88-10.88,10.88-10.88M17.5,4.94c-6.94,0-12.56,5.62-12.56,12.56s5.62,12.56,12.56,12.56,12.56-5.62,12.56-12.56-5.62-12.56-12.56-12.56h0Z"/>
    <path fill="currentColor" d="M17.5,35C7.85,35,0,27.15,0,17.5S7.85,0,17.5,0s17.5,7.85,17.5,17.5-7.85,17.5-17.5,17.5ZM17.5,3.37c-7.79,0-14.13,6.34-14.13,14.13s6.34,14.13,14.13,14.13,14.13-6.34,14.13-14.13S25.29,3.37,17.5,3.37Z"/>
  </symbol>

  <symbol id="Contested" viewBox="0 0 40 40">
    <g fill="currentColor">
      <path d="M11.5,21.34c3.94,0,7.15,3.21,7.15,7.15s-3.21,7.15-7.15,7.15-7.15-3.21-7.15-7.15,3.21-7.15,7.15-7.15M11.5,20.23c-4.56,0-8.25,3.7-8.25,8.26s3.7,8.26,8.25,8.26,8.25-3.7,8.25-8.26-3.7-8.26-8.25-8.26h0Z"/>
      <path d="M11.5,39.98c-6.34,0-11.5-5.16-11.5-11.5s5.16-11.5,11.5-11.5,11.5,5.16,11.5,11.5-5.16,11.5-11.5,11.5ZM11.5,19.2c-5.12,0-9.29,4.17-9.29,9.29s4.17,9.29,9.29,9.29,9.29-4.17,9.29-9.29-4.17-9.29-9.29-9.29Z"/>
    </g>
    <g fill="currentColor">
      <path d="M9.49,7.83c-1.24,1.24-2.14,2.14-2.14,2.14l-1.36-1.36c-.17-.17-.45-.17-.62,0l-.3.3c-.17.17-.17.45,0,.62l1.63,1.63-2.99,2.99c-.17.17-.17.45,0,.62l.53.53c.17.17.45.17.62,0l2.99-2.99,1.63,1.63c.17.17.45.17.62,0l.3-.3c.17-.17.17-.45,0-.62l-1.36-1.36,2.14-2.14-1.69-1.69Z"/>
      <path d="M18.46,2.25c.43-.43.56-2.25.56-2.25,0,0-1.82.13-2.25.56-.35.35-2.69,2.69-4.96,4.96l1.69,1.69c2.26-2.26,4.6-4.6,4.96-4.96Z"/>
      <path d="M19.28,14.17l-2.99-2.99,1.63-1.63c.17-.17.17-.45,0-.62l-.3-.3c-.09-.09-.2-.13-.31-.13s-.22.04-.31.13l-1.36,1.36S6.94,1.28,6.23.57C5.8.15,3.98.02,3.98.02c0,0,.13,1.82.56,2.25l9.42,9.42-1.36,1.36c-.17.17-.17.45,0,.62l.3.3c.09.09.2.13.31.13s.22-.04.31-.13l1.63-1.63,2.99,2.99c.09.09.2.13.31.13s.22-.04.31-.13l.53-.53c.17-.17.17-.45,0-.62Z"/>
    </g>
  </symbol>
</svg>
