<svg xmlns="http://www.w3.org/2000/svg" xmlns:xlink="http://www.w3.org/1999/xlink">

  <defs>
    <style>
      .green {
        fill: lime;
        stroke-width: 0px;
      }
      .yellow {
        fill: yellow;
        stroke-width: 0px;
      }
      .orange {
        fill: orange;
        stroke-width: 0px;
      }
      .bad {
        fill: #ff0000;
        stroke-width: 0px;
      }
      .orange-color {
        fill: #f5730d;
        stroke-width: 0px;
      }
    </style>
  </defs>


<!-- reserve-level-Unknown -->
  <symbol id="reserve-level-unknown" viewBox="0 0 17 16">
  <path fill="currentColor" d="M8,0C3.58,0,0,3.58,0,8s3.58,8,8,8,8-3.58,8-8S12.42,0,8,0ZM8.92,12.68l-.64.64h-1.02l-.64-.64v-.9l.64-.65h1.02l.64.65v.9ZM11.48,6.61l-2.73,2.64v1.21h-1.98v-1.84l2.7-2.61v-.67l-.77-.76h-1.96l-.71.71v.85h-2.01v-1.47l1.83-1.83h3.74l1.89,1.89v1.89Z"/>
  </symbol>


<!-- reserve-level-1 -->
  <symbol id="reserve-level-depleted" viewBox="0 0 17 16">
  <path fill="currentColor" d="M13,9.43l.57,1.76.13.39h2.26l-1.5,1.09-.33.24.13.39.57,1.76-1.5-1.09-.33-.24-.33.24-1.5,1.09.57-1.76.13-.39-.33-.24-1.5-1.09h2.26l.13-.39.57-1.76M13,8.36c-.13,0-.27.08-.32.23l-.79,2.43h-2.56c-.32,0-.46.41-.2.6l2.07,1.5-.79,2.43c-.08.23.11.44.32.44.07,0,.13-.02.19-.07l2.07-1.5,2.07,1.5c.06.05.13.07.19.07.21,0,.39-.2.32-.44l-.79-2.43,2.07-1.5c.26-.19.13-.6-.2-.6h-2.56l-.79-2.43c-.05-.15-.18-.23-.32-.23h0Z"/>
  <path fill="currentColor" d="M4,9.43l.57,1.76.13.39h2.26l-1.5,1.09-.33.24.13.39.57,1.76-1.5-1.09-.33-.24-.33.24-1.5,1.09.57-1.76.13-.39-.33-.24-1.5-1.09h2.26l.13-.39.57-1.76M4,8.36c-.13,0-.27.08-.32.23l-.79,2.43H.33c-.32,0-.46.41-.2.6l2.07,1.5-.79,2.43c-.08.23.11.44.32.44.07,0,.13-.02.19-.07l2.07-1.5,2.07,1.5c.06.05.13.07.19.07.21,0,.39-.2.32-.44l-.79-2.43,2.07-1.5c.26-.19.13-.6-.2-.6h-2.56l-.79-2.43c-.05-.15-.18-.23-.32-.23h0Z"/>
  <path fill="currentColor" d="M13,1.08l.57,1.76.13.39h2.26l-1.5,1.09-.33.24.13.39.57,1.76-1.5-1.09-.33-.24-.33.24-1.5,1.09.57-1.76.13-.39-.33-.24-1.5-1.09h2.26l.13-.39.57-1.76M13,0c-.13,0-.27.08-.32.23l-.79,2.43h-2.56c-.32,0-.46.41-.2.6l2.07,1.5-.79,2.43c-.08.23.11.44.32.44.07,0,.13-.02.19-.07l2.07-1.5,2.07,1.5c.06.05.13.07.19.07.21,0,.39-.2.32-.44l-.79-2.43,2.07-1.5c.26-.19.13-.6-.2-.6h-2.56l-.79-2.43c-.05-.15-.18-.23-.32-.23h0Z"/>
  <path fill="currentColor" d="M4,1.08l.57,1.76.13.39h2.26l-1.5,1.09-.33.24.13.39.57,1.76-1.5-1.09-.33-.24-.33.24-1.5,1.09.57-1.76.13-.39-.33-.24-1.5-1.09h2.26l.13-.39.57-1.76M4,0c-.13,0-.27.08-.32.23l-.79,2.43H.33c-.32,0-.46.41-.2.6l2.07,1.5-.79,2.43c-.08.23.11.44.32.44.07,0,.13-.02.19-.07l2.07-1.5,2.07,1.5c.06.05.13.07.19.07.21,0,.39-.2.32-.44l-.79-2.43,2.07-1.5c.26-.19.13-.6-.2-.6h-2.56L4.32.23c-.05-.15-.18-.23-.32-.23h0Z"/>
  </symbol>

  <!-- reserve-level-2 -->
  <symbol id="reserve-level-low" viewBox="0 0 17 16">
  <path fill="currentColor" d="M13,9.43l.57,1.76.13.39h2.26l-1.5,1.09-.33.24.13.39.57,1.76-1.5-1.09-.33-.24-.33.24-1.5,1.09.57-1.76.13-.39-.33-.24-1.5-1.09h2.26l.13-.39.57-1.76M13,8.36c-.13,0-.27.08-.32.23l-.79,2.43h-2.56c-.32,0-.46.41-.2.6l2.07,1.5-.79,2.43c-.08.23.11.44.32.44.07,0,.13-.02.19-.07l2.07-1.5,2.07,1.5c.06.05.13.07.19.07.21,0,.39-.2.32-.44l-.79-2.43,2.07-1.5c.26-.19.13-.6-.2-.6h-2.56l-.79-2.43c-.05-.15-.18-.23-.32-.23h0Z"/>
  <path fill="currentColor" d="M4,9.43l.57,1.76.13.39h2.26l-1.5,1.09-.33.24.13.39.57,1.76-1.5-1.09-.33-.24-.33.24-1.5,1.09.57-1.76.13-.39-.33-.24-1.5-1.09h2.26l.13-.39.57-1.76M4,8.36c-.13,0-.27.08-.32.23l-.79,2.43H.33c-.32,0-.46.41-.2.6l2.07,1.5-.79,2.43c-.08.23.11.44.32.44.07,0,.13-.02.19-.07l2.07-1.5,2.07,1.5c.06.05.13.07.19.07.21,0,.39-.2.32-.44l-.79-2.43,2.07-1.5c.26-.19.13-.6-.2-.6h-2.56l-.79-2.43c-.05-.15-.18-.23-.32-.23h0Z"/>
  <path fill="currentColor" d="M13,1.08l.57,1.76.13.39h2.26l-1.5,1.09-.33.24.13.39.57,1.76-1.5-1.09-.33-.24-.33.24-1.5,1.09.57-1.76.13-.39-.33-.24-1.5-1.09h2.26l.13-.39.57-1.76M13,0c-.13,0-.27.08-.32.23l-.79,2.43h-2.56c-.32,0-.46.41-.2.6l2.07,1.5-.79,2.43c-.08.23.11.44.32.44.07,0,.13-.02.19-.07l2.07-1.5,2.07,1.5c.06.05.13.07.19.07.21,0,.39-.2.32-.44l-.79-2.43,2.07-1.5c.26-.19.13-.6-.2-.6h-2.56l-.79-2.43c-.05-.15-.18-.23-.32-.23h0Z"/>
  <path fill="currentColor" d="M4,0c-.13,0-.27.08-.32.23l-.79,2.43H.33c-.32,0-.46.41-.2.6l2.07,1.5-.79,2.43c-.08.23.11.44.32.44.07,0,.13-.02.19-.07l2.07-1.5,2.07,1.5c.06.05.13.07.19.07.21,0,.39-.2.32-.44l-.79-2.43,2.07-1.5c.26-.19.13-.6-.2-.6h-2.56L4.32.23c-.05-.15-.18-.23-.32-.23h0Z"/>
  </symbol>

 <!-- reserve-level-3 -->
  <symbol id="reserve-level-common" viewBox="0 0 17 16">
    <path fill="currentColor" d="M13,9.43l.57,1.76.13.39h2.26l-1.5,1.09-.33.24.13.39.57,1.76-1.5-1.09-.33-.24-.33.24-1.5,1.09.57-1.76.13-.39-.33-.24-1.5-1.09h2.26l.13-.39.57-1.76M13,8.36c-.13,0-.27.08-.32.23l-.79,2.43h-2.56c-.32,0-.46.41-.2.6l2.07,1.5-.79,2.43c-.08.23.11.44.32.44.07,0,.13-.02.19-.07l2.07-1.5,2.07,1.5c.06.05.13.07.19.07.21,0,.39-.2.32-.44l-.79-2.43,2.07-1.5c.26-.19.13-.6-.2-.6h-2.56l-.79-2.43c-.05-.15-.18-.23-.32-.23h0Z"/>
    <path fill="currentColor" d="M4,9.43l.57,1.76.13.39h2.26l-1.5,1.09-.33.24.13.39.57,1.76-1.5-1.09-.33-.24-.33.24-1.5,1.09.57-1.76.13-.39-.33-.24-1.5-1.09h2.26l.13-.39.57-1.76M4,8.36c-.13,0-.27.08-.32.23l-.79,2.43H.33c-.32,0-.46.41-.2.6l2.07,1.5-.79,2.43c-.08.23.11.44.32.44.07,0,.13-.02.19-.07l2.07-1.5,2.07,1.5c.06.05.13.07.19.07.21,0,.39-.2.32-.44l-.79-2.43,2.07-1.5c.26-.19.13-.6-.2-.6h-2.56l-.79-2.43c-.05-.15-.18-.23-.32-.23h0Z"/>
    <path fill="currentColor" d="M13,0c-.13,0-.27.08-.32.23l-.79,2.43h-2.56c-.32,0-.46.41-.2.6l2.07,1.5-.79,2.43c-.08.23.11.44.32.44.07,0,.13-.02.19-.07l2.07-1.5,2.07,1.5c.06.05.13.07.19.07.21,0,.39-.2.32-.44l-.79-2.43,2.07-1.5c.26-.19.13-.6-.2-.6h-2.56l-.79-2.43c-.05-.15-.18-.23-.32-.23h0Z"/>
    <path fill="currentColor" d="M4,0c-.13,0-.27.08-.32.23l-.79,2.43H.33c-.32,0-.46.41-.2.6l2.07,1.5-.79,2.43c-.08.23.11.44.32.44.07,0,.13-.02.19-.07l2.07-1.5,2.07,1.5c.06.05.13.07.19.07.21,0,.39-.2.32-.44l-.79-2.43,2.07-1.5c.26-.19.13-.6-.2-.6h-2.56L4.32.23c-.05-.15-.18-.23-.32-.23h0Z"/>
  </symbol>

 <!-- reserve-level-4 -->
  <symbol id="reserve-level-major" viewBox="0 0 17 16">
  <path fill="currentColor" d="M13,9.43l.57,1.76.13.39h2.26l-1.5,1.09-.33.24.13.39.57,1.76-1.5-1.09-.33-.24-.33.24-1.5,1.09.57-1.76.13-.39-.33-.24-1.5-1.09h2.26l.13-.39.57-1.76M13,8.36c-.13,0-.27.08-.32.23l-.79,2.43h-2.56c-.32,0-.46.41-.2.6l2.07,1.5-.79,2.43c-.08.23.11.44.32.44.07,0,.13-.02.19-.07l2.07-1.5,2.07,1.5c.06.05.13.07.19.07.21,0,.39-.2.32-.44l-.79-2.43,2.07-1.5c.26-.19.13-.6-.2-.6h-2.56l-.79-2.43c-.05-.15-.18-.23-.32-.23h0Z"/>
  <path fill="currentColor" d="M4,8.36c-.13,0-.27.08-.32.23l-.79,2.43H.33c-.32,0-.46.41-.2.6l2.07,1.5-.79,2.43c-.08.23.11.44.32.44.07,0,.13-.02.19-.07l2.07-1.5,2.07,1.5c.06.05.13.07.19.07.21,0,.39-.2.32-.44l-.79-2.43,2.07-1.5c.26-.19.13-.6-.2-.6h-2.56l-.79-2.43c-.05-.15-.18-.23-.32-.23h0Z"/>
  <path fill="currentColor" d="M13,0c-.13,0-.27.08-.32.23l-.79,2.43h-2.56c-.32,0-.46.41-.2.6l2.07,1.5-.79,2.43c-.08.23.11.44.32.44.07,0,.13-.02.19-.07l2.07-1.5,2.07,1.5c.06.05.13.07.19.07.21,0,.39-.2.32-.44l-.79-2.43,2.07-1.5c.26-.19.13-.6-.2-.6h-2.56l-.79-2.43c-.05-.15-.18-.23-.32-.23h0Z"/>
  <path fill="currentColor" d="M4,0c-.13,0-.27.08-.32.23l-.79,2.43H.33c-.32,0-.46.41-.2.6l2.07,1.5-.79,2.43c-.08.23.11.44.32.44.07,0,.13-.02.19-.07l2.07-1.5,2.07,1.5c.06.05.13.07.19.07.21,0,.39-.2.32-.44l-.79-2.43,2.07-1.5c.26-.19.13-.6-.2-.6h-2.56L4.32.23c-.05-.15-.18-.23-.32-.23h0Z"/>
  </symbol>

 <!-- reserve-level-5 -->
  <symbol id="reserve-level-pristine" viewBox="0 0 17 16">
  <path fill="currentColor" d="M13,8.36c-.13,0-.27.08-.32.23l-.79,2.43h-2.56c-.32,0-.46.41-.2.6l2.07,1.5-.79,2.43c-.08.23.11.44.32.44.07,0,.13-.02.19-.07l2.07-1.5,2.07,1.5c.06.05.13.07.19.07.21,0,.39-.2.32-.44l-.79-2.43,2.07-1.5c.26-.19.13-.6-.2-.6h-2.56l-.79-2.43c-.05-.15-.18-.23-.32-.23h0Z"/>
  <path fill="currentColor" d="M4.32.23l.79,2.43h2.56c.32,0,.46.41.2.6l-2.07,1.5.79,2.43c.1.31-.25.56-.51.37l-2.07-1.5-2.07,1.5c-.26.19-.61-.07-.51-.37l.79-2.43L.14,3.27c-.26-.19-.13-.6.2-.6h2.56S3.68.23,3.68.23c.1-.31.53-.31.63,0Z"/>
  <path fill="currentColor" d="M13.32.23l.79,2.43h2.56c.32,0,.46.41.2.6l-2.07,1.5.79,2.43c.1.31-.25.56-.51.37l-2.07-1.5-2.07,1.5c-.26.19-.61-.07-.51-.37l.79-2.43-2.07-1.5c-.26-.19-.13-.6.2-.6h2.56s.79-2.43.79-2.43c.1-.31.53-.31.63,0Z"/>
  <path fill="currentColor" d="M4.32,8.57l.79,2.43h2.56c.32,0,.46.41.2.6l-2.07,1.5.79,2.43c.1.31-.25.56-.51.37l-2.07-1.5-2.07,1.5c-.26.19-.61-.07-.51-.37l.79-2.43L.14,11.6c-.26-.19-.13-.6.2-.6h2.56s.79-2.43.79-2.43c.1-.31.53-.31.63,0Z"/>
  </symbol>

</svg>

