<?xml version="1.0" encoding="utf-8"?>
<!-- Generator: Adobe Illustrator 28.3.0, SVG Export Plug-In . SVG Version: 6.00 Build 0)  -->
<svg version="1.1" id="Ebene_1" xmlns="http://www.w3.org/2000/svg" xmlns:xlink="http://www.w3.org/1999/xlink" x="0px" y="0px"
	 viewBox="0 0 479.8 327.8" style="enable-background:new 0 0 479.8 327.8;" xml:space="preserve">
<style type="text/css">
	.st0{fill:#FFFFFF;}
</style>
<g id="XMLID_00000177464094973721549900000004345551477813060772_">
	<path id="XMLID_00000152223235724835362790000014081416716937101980_" class="st0" d="M207.4,318c36.8,10.1,77.6,6.1,113.3-14.6
		c35.8-20.7,59.7-54.2,69.3-91.4c-25.8,21.3-55.3,41.9-87.9,60.7C270.2,291.2,238.2,306.4,207.4,318z"/>
	<path id="XMLID_00000163032020331778871050000010637950419369321875_" class="st0" d="M106.7,126c-5.3,15.2-8.1,31.5-8.1,48.5
		c0,2.5,0.1,6.6,0.2,9.7c0,0,0,0,0,0c1.4,22.1,7.8,44.3,19.6,64.8c1.9,3.3,4,6.6,6.1,9.7C183,242,229.1,218,265.7,197.9
		c70.2-38.5,103.9-74.2,114.6-87c-1.7-3.5-3.5-6.9-5.4-10.3c-11.7-20.4-27.5-36.8-45.8-49.1c0,0,0,0,0.1,0
		c-15.5-10.2-35.8-18.6-54.5-22.5c0,0,0,0-0.1,0c-9.3-1.8-18.8-2.7-28.3-2.7c-25,0-50.4,6.5-73.7,19.9
		C140.5,64.7,118,93.5,106.7,126C106.7,126,106.7,126,106.7,126z"/>
	<polygon id="XMLID_00000176019153264339917700000002140156472948532634_" class="st0" points="390,211.9 390,211.9 390,211.9 	"/>
	<path id="XMLID_00000145048054176971867110000006627884471325198497_" class="st0" d="M473.8,28.5c-11-19.1-36-28.4-69.7-28.5l0,0
		C372-0.1,331.8,8,288.2,23.8c18.5,5,43.2,16.7,58.1,26.2c0.5,0,0.9,0,1.4,0l0,0c24.5-0.4,42.6,5.8,50.4,19.4
		c8.4,14.5,3.6,35.1-11.2,57.9c0,0-25.8,40.8-111.7,87c-35.5,19.1-67.6,40.2-139.4,58.9c-27.7,1.7-48.3-4.4-56.8-19.2
		c-8.2-14.3-3.7-34.5,10.5-56.8c-0.1-7.2,0-20.3,0-22.8c0-13.4,1.8-26.3,5.1-38.6C22.2,197.2-15.5,261.9,6,299.3
		c23.4,40.5,109.4,36.7,208.6-4.2c1.7-0.7,3.4-1.4,5.1-2.1c0.6-0.3,1.2-0.5,1.9-0.8c1.8-0.8,3.6-1.6,5.4-2.3l1.6-0.7
		c1.4-0.6,2.9-1.3,4.3-1.9c19.7-8.8,39.8-19,59.8-30.6c15.8-9.2,30.9-18.8,45.2-28.7c0.4-0.3,0.8-0.5,1.2-0.8c0.7-0.5,1.3-0.9,2-1.4
		C441.5,155.7,499.3,72.8,473.8,28.5z"/>
</g>
</svg>
