<?xml version="1.0" encoding="utf-8"?>
<!-- Generator: Adobe Illustrator 28.3.0, SVG Export Plug-In . SVG Version: 6.00 Build 0)  -->
<svg version="1.1" id="Ebene_1" xmlns="http://www.w3.org/2000/svg" xmlns:xlink="http://www.w3.org/1999/xlink" x="0px" y="0px"
	 viewBox="0 0 479.8 327.8" style="enable-background:new 0 0 479.8 327.8;" xml:space="preserve">
<style type="text/css">
	.st0{fill:#FFFFFF;}
</style>
<path id="XMLID_00000000197102131512266860000013616605034400671369_" class="st0" d="M404.1,0c-35.5-0.1-80.7,9.8-129.6,29
	c-9.3-1.8-18.8-2.7-28.3-2.7c-25,0-50.4,6.5-73.7,19.9c-32,18.6-54.6,47.3-65.8,79.8C26.5,190.1-16.7,259.9,6,299.3
	c23.3,40.5,109.4,36.7,208.6-4.2c1.7-0.7,3.4-1.4,5.1-2.1c0.6-0.3,1.2-0.5,1.9-0.8c1.8-0.8,3.6-1.6,5.4-2.3l1.6-0.7
	c1.4-0.6,2.9-1.3,4.3-1.9c19.7-8.8,39.8-19,59.8-30.6c15.8-9.2,30.9-18.8,45.2-28.7c0.4-0.3,0.8-0.5,1.2-0.8c0.7-0.5,1.3-0.9,2-1.4
	c100.4-70,158.1-152.8,132.6-197.2C462.8,9.4,437.8,0.1,404.1,0L404.1,0z M347.7,50c24.5-0.4,42.6,5.8,50.4,19.4
	c8.4,14.5,3.6,35.1-11.2,57.9c-3.1-9.1-7.1-18.1-12.1-26.8c-11.7-20.4-27.5-36.8-45.8-49.1C335.6,50.6,341.9,50.1,347.7,50L347.7,50
	z M98.8,184.3c1.4,22.1,7.8,44.3,19.6,64.8c5.1,8.8,10.9,17,17.4,24.3c-27.7,1.7-48.3-4.4-56.8-19.2
	C69.2,237.1,77.5,211.8,98.8,184.3z M390,211.9c-25.8,21.3-55.3,41.9-87.9,60.8c-32,18.5-64,33.7-94.8,45.3
	c36.8,10.1,77.6,6.1,113.3-14.6C356.5,282.6,380.4,249.2,390,211.9L390,211.9z"/>
</svg>
