<?xml version="1.0" encoding="utf-8"?>
<!-- Generator: Adobe Illustrator 28.3.0, SVG Export Plug-In . SVG Version: 6.00 Build 0)  -->
<svg version="1.1" id="Layer_2" xmlns="http://www.w3.org/2000/svg" xmlns:xlink="http://www.w3.org/1999/xlink" x="0px" y="0px"
	 viewBox="0 0 739.5 606.6" style="enable-background:new 0 0 739.5 606.6;" xml:space="preserve">
<style type="text/css">
	.st0{fill:#FFFFFF;}
	.st1{fill:none;stroke:#FFFFFF;stroke-width:60;stroke-miterlimit:10;}
</style>
<rect id="XMLID_00000183211650450085993430000008744308376980907136_" y="546.6" class="st0" width="739.5" height="60"/>
<g id="XMLID_00000028284351008820244190000011994199644702403487_">
	<path id="XMLID_00000109723446724948385470000015799785882978097084_" class="st0" d="M307.9,467v79.6h-193V467H307.9 M367.9,407
		h-60h-193h-60v60v79.6v60h60h193h60v-60V467V407L367.9,407z"/>
</g>
<g id="XMLID_00000115502480630550350250000001957542111856087182_">
	<path id="XMLID_00000099639150871732379840000011912354694483210662_" class="st0" d="M609.9,360v186.6h-242V360H609.9 M669.9,300
		h-362v306.6h362V300L669.9,300z"/>
</g>
<line id="XMLID_00000100354604066754646370000010008919930226672052_" class="st1" x1="181.9" y1="242" x2="321.9" y2="242"/>
<line id="XMLID_00000002378604562321985200000012128638854449855151_" class="st1" x1="181.9" y1="134" x2="321.9" y2="134"/>
<line id="XMLID_00000134244037942112809260000016834558386046391991_" class="st1" x1="515.9" y1="439" x2="656.9" y2="439"/>
<polygon id="XMLID_00000068649564579032356610000009808704725052604578_" class="st0" points="228.9,423.3 228.9,60 376.9,60 
	376.9,304.7 436.9,304.7 436.9,0 168.9,0 168.9,423.3 "/>
</svg>
