<?xml version="1.0" encoding="UTF-8"?>
<svg id="Ebene_1" xmlns="http://www.w3.org/2000/svg" version="1.1" xmlns:inkscape="http://www.inkscape.org/namespaces/inkscape" xmlns:sodipodi="http://sodipodi.sourceforge.net/DTD/sodipodi-0.dtd" xmlns:svg="http://www.w3.org/2000/svg" xmlns:xlink="http://www.w3.org/1999/xlink" viewBox="0 0 18 18">
  <!-- Generator: Adobe Illustrator 29.2.1, SVG Export Plug-In . SVG Version: 2.1.0 Build 116)  -->
  <defs>
    <style>
      .st0 {
        fill: #00bfff;
      }
    </style>
  </defs>
  <sodipodi:namedview id="namedview1" bordercolor="#eeeeee" borderopacity="1" inkscape:current-layer="layer-MC0" inkscape:cx="99.371069" inkscape:cy="100" inkscape:deskcolor="#505050" inkscape:pagecheckerboard="0" inkscape:pageopacity="0" inkscape:showpageshadow="0" inkscape:window-height="1013" inkscape:window-maximized="1" inkscape:window-width="1920" inkscape:window-x="-9" inkscape:window-y="-9" inkscape:zoom="3.975" pagecolor="#505050">
    <inkscape:page id="page1" x="0" y="0" width="198.66667" height="200" bleed="0" inkscape:label="1" margin="29.2596 41.785332 29.305334 39.959202"/>
  </sodipodi:namedview>
  <g>
    <polygon class="st0" points="0 0 0 .9 0 6.4 .9 6.4 .9 1.6 5.7 6.3 6.3 5.7 1.5 .9 6.4 .9 6.4 0 .9 0 0 0"/>
    <polygon class="st0" points="17.1 0 11.6 0 11.6 .9 16.5 .9 11.7 5.7 12.3 6.3 17.1 1.6 17.1 6.4 18 6.4 18 .9 18 0 17.1 0"/>
    <polygon class="st0" points="6.3 12.3 5.7 11.7 .9 16.4 .9 11.6 0 11.6 0 17.1 0 18 .9 18 6.4 18 6.4 17.1 1.5 17.1 6.3 12.3"/>
    <polygon class="st0" points="17.1 16.4 12.3 11.7 11.7 12.3 16.5 17.1 11.6 17.1 11.6 18 17.1 18 18 18 18 17.1 18 11.6 17.1 11.6 17.1 16.4"/>
  </g>
  <ellipse class="st0" cx="9" cy="9" rx="2.9" ry="2.9"/>
</svg>