<?xml version="1.0" encoding="UTF-8"?>
<svg id="a" data-name="Ebene 1" xmlns="http://www.w3.org/2000/svg" viewBox="0 0 48 48">
  <defs>
    <style>
      .c {
        fill: #903800;
      }
    </style>
  </defs>
  <g id="b" data-name="Layer 34">
    <path class="c" d="M9.61,14.04h2.37c.49,1.9,2.21,3.32,4.27,3.32s3.78-1.42,4.27-3.32h17.87c.61,0,1.11-.5,1.11-1.11s-.49-1.11-1.11-1.11h-17.87c-.49-1.9-2.21-3.32-4.27-3.32s-3.78,1.42-4.27,3.32h-2.37c-.61,0-1.11.5-1.11,1.11s.5,1.11,1.11,1.11ZM16.25,10.71c1.22,0,2.21.99,2.21,2.21s-.99,2.21-2.21,2.21-2.21-.99-2.21-2.21.99-2.21,2.21-2.21Z"/>
    <path class="c" d="M38.39,22.89h-2.37c-.49-1.9-2.21-3.32-4.27-3.32s-3.78,1.42-4.27,3.32H9.61c-.61,0-1.11.5-1.11,1.11s.5,1.11,1.11,1.11h17.87c.49,1.9,2.21,3.32,4.27,3.32s3.78-1.42,4.27-3.32h2.37c.61,0,1.11-.5,1.11-1.11s-.49-1.11-1.11-1.11ZM31.75,26.21c-1.22,0-2.21-.99-2.21-2.21s.99-2.21,2.21-2.21,2.21.99,2.21,2.21-.99,2.21-2.21,2.21Z"/>
    <path class="c" d="M38.39,33.96h-17.87c-.49-1.9-2.21-3.32-4.27-3.32s-3.78,1.42-4.27,3.32h-2.37c-.61,0-1.11.5-1.11,1.11s.5,1.11,1.11,1.11h2.37c.49,1.9,2.21,3.32,4.27,3.32s3.78-1.42,4.27-3.32h17.87c.61,0,1.11-.5,1.11-1.11s-.49-1.11-1.11-1.11ZM16.25,37.29c-1.22,0-2.21-.99-2.21-2.21s.99-2.21,2.21-2.21,2.21.99,2.21,2.21-.99,2.21-2.21,2.21Z"/>
  </g>
</svg>