<?xml version="1.0" encoding="UTF-8"?>
<svg id="Ebene_1" xmlns="http://www.w3.org/2000/svg" version="1.1" xmlns:xlink="http://www.w3.org/1999/xlink" viewBox="0 0 1792.4 1754.8">
  <!-- Generator: Adobe Illustrator 29.2.1, SVG Export Plug-In . SVG Version: 2.1.0 Build 116)  -->
  <path d="M674.8,1078.6h0l1.1.2.4.4,1.9,3.2.7,1.7.5,1.8v2.2l-.5,1.8-1.1,1.8-1.8,1.7-3.8,2.8-46.9,29-23.5,14.4-23.8,14.1-19.8,11-40.1,21.1-19.8,10.8-7.8,4.7-7.3,5.2-6.9,5.7-6.5,6.1-6.1,6.5-5.8,6.8-5.4,7.2-5.1,7.5-12.8,20.2-13.2,19.9-11.1,15-11.4,14.9-10.9,14.7-10.4,15.4-12.1,19.9-11.7,20.2-11,20.6-10.2,20.9-8.9,20.3-8,20.7-7.2,21-6.2,21.2-5.6,22.8-4.6,23.2-7.9,46.5-2.4,17.4-1.4,17.5-.5,17.4.2,17.5.8,17.5,1.2,17.5,3.2,35.1v2.5c.1,0-.6,7.7-.6,7.7l-.5.6h-.3c0,0-1.8.4-1.8.4l-.6-.2-.4-.5-1.5-3.4-.8-2.1-.5-2.1-4.2-25.1-3.6-25.2-3.6-34.4-2.4-34.5-.2-17.5.6-17.4,1.4-17.3,2.1-17.2,2.8-17.2,3.4-17.1,3.8-17,4.3-16.9,5.9-21.7,6.2-21.6,6.6-21.4,7.1-21.3,7.5-21.1,8-20.9,8.5-20.8,9.1-20.6,7.4-15.8,7.7-15.7,8.1-15.5,8.4-15.2,8.9-14.9,9.5-14.7,10-14.2,10.8-13.8,4.7-5.4,14.5-15.2v-.3c.1,0-.4-2.7-.4-2.7l-.3-.3h-67.2l-.7-.2-.4-.7-.2-1.9.2-.8.6-.4,40.4-8.8,33-7.9,32.8-8.6,32.6-9,32.6-9.6,32.5-9.8,64.8-20.2,9.1-3.6,8.8-4.7,8.8-5.1,8.8-4.8,1.2-.5,2.8-.8,3.4-.6M1146.1,1095.1h.2l69.8,21.2,35.2,10.5,35.2,10.3,35.4,9.8,35.5,9.3,35.7,8.6,35.2,7.7.3.2.5.5v2.4c0,0,0,.4,0,.4l-.8.3h-69l-.2.3,1.7,4.7.5.7,11.3,11,10.3,11.8,9.5,12.2,8.8,12.8,8.2,13.2,7.8,13.4,7.4,13.6,7.3,13.8,14.3,28.6,13.1,29.1,12,29.4,11,29.8,9.9,30.2,9.1,30.5,8.2,30.8,7.5,31,3.8,18.8,3,18.8,2.2,18.9,1.2,18.9.4,18.9-.5,19.1-1.4,19.1-2.3,19-1.8,19-1.4,19.1-.7,2.7-3.1,6.4-.4.5-.6.2-2.2-.5-.6-.3-.3-.8.2-18.5-.3-19.2-2.8-45.7-1.9-22.8-2.6-22.7-3.3-22.2-4-22.1-4.8-21.9-5.8-21.6-7.1-22-8.1-21.7-8.8-21.3-9.5-21.1-9.9-19.8-10.7-19.4-22.3-38.3-3.9-6.2-4.4-6-4.8-5.8-5.1-5.5-6.7-7.5-6-8.2-5.4-8.4-5.1-8.6-9.8-17.4-5.2-8.6-5.7-8.2-6.2-8.2-6.5-7.9-6.8-7.7-7.1-7.2-7.5-6.9-7.9-6.4-8.3-6-8.9-5.4-138.3-78.2-4.2-2.4-2.9-2-2-1.8-.6-1-.4-1.2v-2l.3-1.5,1.2-3,2.9-5.6.4-.4.5-.4M890.7,274.1h-.2c0-.1,10,.4,10,.4l9.7,2,9.4,3.2,46.9,18.8,23.2,10,22.8,11,20.7,11.8,19.5,13.3,18.2,14.6,17,15.9,15.9,17,14.8,18.2,13.8,19.1,12.9,20.1,5.5,9.8,8.2,10.8,4.7,8,3.8,8.5,2.9,8.7,2.2,9.1,1.7,9.1,1.2,9.2.9,9.3,1,6.4,1.5,6.3,3.8,12.5,10.7,31.9,2.8,10.6,1.2,8,.5,7.7-.3,7.8-1,7.8-1.7,7.5-2.2,7.6-2.7,7.4-5.2,12.4-4.7,16-5,15.4-5.9,14-3.2,9.4-2.2,9.6-.9,12.7-.4,2.6-.7,2.6-.9,2.6-2.3,5-2.5,4.6-1.8,2.2-2.2,1.6-2.6.9h-2.8c0,0-2.7-.4-2.7-.4l-2.6-1.2-2.3-2-2-2.8-1.8-4.2-3.8-14.9-.2-1.5.2-2.2.5-1.2,1.1-1.8,2.2-2,3.5-2.6,1.6-1.3,2.8-3.1,2.4-3.4,14.2-26.1,6.9-13.1,6.5-13.4,3.1-7.8,2.3-8,1.5-8.1.8-8.2.2-8.1-.4-8.2-.9-8.3-1.3-8.3-.8-2.7-1.1-2.5-1.5-2.5-7.1-7.5-4.4-6-3.4-6.2-2.7-6.5-2.1-6.9-1.4-7.1-1-7.2-1.1-15-.6-3.6-.4-1.6-1.2-3.4-.8-1.5-1-1.5-2.5-2.6-1.6-1.2-1.8-1.1-2-.9-1.1-.9-.8-1-1.2-2.9-.4-1.8-.2-3.1,1.7-9,.3-7.2-.7-6.8-1.6-6.6-2.5-6.3-3.4-6.1-4.1-5.8-4.8-5.7-22.2-24.9-7.7-8-6.2-5.9-6.5-5.5-6.8-5.2-7.1-4.8-2.7-1.3-2.8-.8-2.8-.2-2.9.2-2.7.8-2.6,1.2-2.6,1.7-2.3,2.1-1.9,2.2-1.3,2.4-.9,2.5-.3,2.5v2.5c0,0,.6,2.6.6,2.6l.8,2.5,1.1,2.6,3.3,6.4,3.7,6.1,4.1,5.7,4.5,5.2,5,4.6,5.7,4.1,6.3,3.4,12.6,4.8,5.2,2.8,4.8,3.3,4.4,3.6,1.2,1.3,1,1.4.8,1.6.7,1.8.5,1.9.3,1.8v1.7l-.2,1.3-.6,1.5-1,1.4-1.2,1.4-1.5,1.2-1.6,1.1-1.8.9-1.5.6-1.6.4-3.2.2h-9l-3,.4-2.9.9-2.8,1.5-2.7,2.2-6.4,7.5-5.1,8.1-3.5,8.8-1.6,9.3-.2,11.9.5,12.1.9,12.1,1,12,.6,2.3,1.1,2.2,1.5,2.2,22.2,32,3.1,5.5,2,5.3,1,5.5v5.6c0,0-.8,5.4-.8,5.4l-1.7,5.1-2.6,5.4-7.3,11.4-1.7,3.2-1.3,3.3-.9,3.4-.6,3.7v3.8l.6,4,1.1,4.7,1.6,4.1,1.9,3.4,2.3,2.8,2.8,2.2,3.4,1.8,1.9.7,4.5,1.1,6.5,1.2,3.4,1.1,2.8,1.5,2.2,1.9,1.7,2.2,1,2.7.4,3.2-.3,3.4-.8,3.1-1.2,2.4-1.8,2.2-2.6,1.9-2.8,1.2-3.1.6h-3.4l-15.2-2.4h-10.6l-10,1.5-9.4,3.1-9,4.4-8.5,5.7-8.1,6.8-7.9,7.7-9.3,11.2-7.9,12.1-6.8,12.6-12,25.9-6.3,12.3-7.3,11.8-11.1,13.9-1.8,3.3-1.6,3.8-1.3,4-3.6,13-1.2,3.8.2.3h6.5l5.6-.4h3.7l3.7.5,3.6.8,3.6,1.1,3.5,1.3,3.4,1.5,11.9,5.9,8.7,3.8,8.8,3.3,9,2.8,9.1,2.2,9.3,1.6,9.4.9,9.5.2,7.5-.6,7.5-1.5,7.4-2.2,7-2.8,8.4-4.3,8.2-5,8.2-5.2,8.3-4.9,5-2.5,5.1-2.2,11-4h1.1c0,0,1.8.1,1.8.1l1.6.5.8.5.3.6.3,1.2v1.8l-.3,1.8-.8,1.7-7.9,9.1-8.4,8.6-2.5,1.9-7.5,4v.4c0,0,3.7,4.9,3.7,4.9h.4c0,0,34.4-15.4,34.4-15.4h.5c0,0,.8.2.8.2l2.9,2.8,2.7,3.7,1.9,4,1.2,4.5.6,4.5v5c0,0-.8,4.9-.8,4.9l-1.3,4.9-2.1,5.4-2.5,5.2-2.8,4.6-3,4.3-3.4,3.9-3.5,3.6-3.9,3.5-4.1,3.1-4.2,2.9-4.3,2.6-4.5,2.5-9.2,4.7-14.2,6.5-5.2,2.6-4.8,3-4.4,3.2-4.2,3.5-4,3.8-3.8,4-6.9,7.8h0c0,0,4.8-1.6,4.8-1.6l24.5-10.2,24.4-10.5,3.7-2,3.5-2.3,3.3-2.7,18-17.1,15.6-13.2,16.2-12.1,16.8-11.1,17.4-10.2,18-9.2,18.6-8.3,58.8-22.9,20-7.1,20.4-5.6,18.4-4,18.5-3.5,18.6-3,18.6-2.2,18.8-1.4,18.8-.4,18.8.8,18.8,2,9.9,2.2,9.8,3.1,18.8,6.8.4.7v.4l-.2.4-.3.3-19.1,11.9v.4c0,0,2.4,3.5,2.4,3.5l1,.9,15.8,12.8,14.9,13.5,14.2,14.2,13.6,14.8,13,15.2,12.6,15.6,12.3,15.9,12.1,16.2,20,28.7,18.3,29.5,16.6,30.2,15,31,13.2,31.7,11.7,32.5,10,33.2,8.4,33.8,11.5,55.4,11.6,60.5.6,4.8.2,4.8-.4,4.7-1.1,4.4-2.2,4.6-3.1,4-3.5,3.2-.4.2h-.6c0,0-.4,0-.4,0l-.3-.4-2.1-4.5-.7-2.1-10.3-44.7-4.6-22.5-5.4-39.3-3.5-16.4-4.4-16-5.2-15.8-5.8-15.6-6.2-15.5-6.4-15.3-15.1-35.4-9.1-19.9-9.6-19.6-10.3-19.2-11.1-18.8-11.9-18.2-12.9-17.7-14-17-14-15.6-14.5-15-15-14.5-15.5-14-16-13.3-16.6-12.7-17.2-12-17.8-11.3-11.1-6-11.3-5.2-11.4-3.6-11.5-2.5-11.7-1.5-11.8-.5-11.9.3-12.1,1.2-19.6,2.8-19.4,3.2-19.4,3.8-19.2,4.3-19.1,4.9-19,5.6-18.8,6.2-18.6,7-17.1,7.3-16.5,8.1-16,8.9-15.6,9.5-15.2,10.1-14.9,10.7-14.7,11-14.5,11.5-13.8,10.1-14.5,9.2-14.8,8.8-14.7,9.1-2.4,1.8-2.3,2-1.8,2.2-1.3,2.4-6.5,18.5-2.8,9.4-4.4,20.1-3.1,10-3.9,9.5-4.8,9-5.5,8.4-6.3,8-7.2,7.6-8,7-1.3.8-1.3.6-2,.2h-.5c0,0-.4-.4-.4-.4l-.2-.4v-.5l1.1-7.7,2.4-8.3.8-5.4v-5.4c0,0-.4-5.3-.4-5.3l-.9-5.2-1.2-5.3-3.3-12-.8-1.6-1.8-2.7-9.2-10.1-9.5-9.8-2.4-1.9-2.7-1.2-2.8-.7h-3.1c0,0-3.2.4-3.2.4l-3.5,1.1-3.5,1.6-7.7,4.6-4.3,1.8-4.2,1.1-4.1.4-3.9-.2-4-.9-3.8-1.7-10.2-7.1-6.5-2.9-6.6-1.4-6.6-.2-6.6.8-6.6,1.6-6.5,2.2-6.5,2.5-7.2,3.3-6.8,4-13.5,8.5-3.4,2.4-2.9,2.5-2.6,2.8-2.1,3.1-1.7,3.3-1.2,3.6-.8,3.8-.2,3.9v5.2c0,0,.3,5.1.3,5.1l.5,5,.8,5.1,1.2,4.9,1.7,4.8,2.3,4.6,4.5,6.5,1.2,2.4,1,2.9-.4.8-.7.2-.6-.2-2.3-1.3-4.1-2.6-4-3-3.5-3.3-2.9-3.5-2.5-4.1-1.8-4.8-3.7-19.3-4-13.8-5-13.6-5.5-13.3-1.8-3.8-2-3.4-2.1-3.3-2.4-3.2-5-6.2-5.3-6.1-6-6.2-6.3-5-6.6-4.1-7-3.2-7.2-2.3-7.5-1.7-7.8-1-12.7-.9-4.3-.8-4.2-1.3-3.6-1.8-3.2-2.5-2.9-3.2-2.4-3.7-3.2-7.2-1.4-2.5-1.6-2.4-3.7-4.5-2-2.1-4.2-4-12.3-10.5-12.6-9.8-12.9-9.2-13.1-8.6-13.4-8-13.7-7.5-13.9-6.9-14.2-6.4-14.3-5.9-14.6-5.4-14.8-5-15-4.5-15.2-4.1-15.4-3.7-15.5-3.3-26.7-4.9-21.9-3.7-11-1.4-11-.9-11-.3-11.1.5-11.1,1.4-7.1,1.2-7.1,1.5-6.9,2-3.3,1.2-3.2,1.5-24.6,13.5-23.4,14.9-22.2,16.3-21.1,17.6-20,18.8-19.1,19.9-18.2,21-17.3,22-8.7,12.1-8.1,12.4-7.7,12.7-7.2,12.9-6.9,13.2-6.6,13.3-6.4,13.4-6.1,13.6-14.9,33.3-7.1,16.9-6.7,17-6.2,17.2-5.7,17.4-5,17.6-4.2,18-15.7,77-4.9,21.7-.5.7-.7.2-3.1-.2-.6-.5-2-17.4-.8-8.9-.3-8.9.5-13.2,1.2-13.1,1.8-12.9,2.3-12.8,2.8-12.8,3.1-12.7,3.3-12.7,8.8-31.7,5.5-19,5.8-18.8,6.1-18.8,6.5-18.6,7-18.5,7.7-18.2,8.4-18,14.2-27.2,15.3-26.5,16.3-25.7,17.4-25,18.4-24.2,19.3-23.5,20.3-22.8,21.2-22.2,3.7-3.5,11.9-9.9,16.8-13.6v-.4l-22-13.8-.3-.3-.2-.5v-.4c.1,0,.6-.6.6-.6l22.1-4.2,11-1.8,10.9-.8,46.8.8,68.2,2.6,10.8.8,10.5,1.6,10.9,2.4,10.8,3.1,10.6,3.6,34.5,13,24,9.3,23.8,9.8,23.4,10.6,16.8,9,16.2,10,15.9,10.7,15.7,11,3.8,3,3.7,3.2,3.5,3.4,10.1,10.5,7.1,6.7,18.8,15.5,18.9,15.1,3,2.1,3.1,1.4,3.2.9,3.4.4h3.6c0,0,3.8,0,3.8,0l7.8-.7v-.3c0,0-20.5-18.5-20.5-18.5l-2.5-2-5.5-3.6-2.5-2.2-44.3-48.5-5-5.2-5.1-5-5.5-4.9-2-2-1.7-2.5-1.2-2.8-.8-3.1-.2-3.2v-3.1c0,0,.7-3.3.7-3.3l.9-3.4,1.3-3.2,1.6-3,2-3,2.3-2.7,2.6-2.4,2.8-2,3.1-1.7,3.3-1.2h.7c0,0,1,.2,1,.2l2.1,1.3,1.5,1.5.5.8.3,1,.2,3.6.8,3.2,1.3,3,1.8,2.7,2.1,2.3,2.4,2.1,2.5,1.9,2.7,1.8,7.1,4,7.2,3.3,7.5,2.9,7.6,2.4,7.8,2,7.8,1.6,15.9,2.6h2.3l2.5-.4.9-.7v-.4c0,0-19.8-7.4-19.8-7.4l-10-4-9.6-4.8-4.7-3-4.2-3.3-3.9-3.8-3.6-4.1-3.3-4.4-3-4.6-2.8-4.8-2.2-4.3v-.6c0,0,.1-.5.1-.5l1-1.2.4-.3h.5c0,0,.7.1.7.1l6.3,4.6,3.5,2.6,12.5,11.2,10,7.2,10.8,5.8,11.7,4.1,11.2,2.5,11.4,1.8,11.2.8,11.2-.2,11-1.3,10.9-2.6,10.8-4.1,16-8.3,5.6-2.2,5.8-1.7,7.8-2,1.7-.7,1.3-.8,1-1,.7-1.2.5-1.3.2-1.7v-2l-.9-8.3-1.8-8-2.6-7.8-3.2-7.9-4.9-10.3-5.3-10-5.7-9.8-6-9.6-6.3-9.3-6.6-9.2-13.8-18.1-5.8-8.4-10.3-17-5.7-8.5-5.4-6.3-5.8-4.8-6.5-3.5-6.8-2.4-7.1-1.4-7.5-.5h-7.6c0,0-7.9.8-7.9.8l-9.8,2-4.8,1.3-4.5,1.4-4.1,1.7-3.7,1.8-3.4,2.1-3,2.3-2.8,2.6-2.4,2.8-2.2,3.2-1.8,3.5-1.6,3.8-1.3,4-1.2,4.5-1,4.9-.8,5.3-1,10.1-1,20.6-.7,10.1-.2,1.2-.8,2.1-1.2,2-1.4,1.4-.8.5-2.4.9-2,.5-2.3.2h-2.2c0,0-2-.4-2-.4l-2-.6-1.9-.8-2-1.2-1.6-1.3-1.5-1.5-1.2-1.7-1-1.7-.8-2.1-.5-2.2v-2.1c0,0,.1-2.5.1-2.5l1.5-8.5,2-8.5,2.6-8.2,5.8-12.8,1.4-5,.5-4.8-.4-4.6-1.2-4.5-1.8-4.4-2.3-4.2-9.3-13.8-5.5-10.1-4.5-10.4-3.7-10.6-3-10.8-2.5-11-2.1-11.1-1.8-11.2-1.8-13.3-1.2-13.1-.6-13.1v-12.9l.6-12.8,1.2-12.7,1.8-12.5,2.4-12.5,3-12.3,3.5-12.2,4-12.1,4.6-12,5.2-12.1,5.7-11.8,6.1-11.6,8.6-15,7-15,1.8-3.6,2-3.5,2.3-3.4,8.7-11.5,9-11.4,9.5-10.8,10.4-10,20.4-17.8,20.9-17.4,21.5-16.6,22.2-15.4,10.8-6.9,11.1-6.7,11.3-6.3,11.5-6,11.8-5.5,12-5,12.2-4.5,12.4-3.8,10.5-1.4M1117.2,1054.6v.2c0,0,.8.2.8.2l.4.7,1.2,6.3.4,3.6v3.3c0,0-.6,3.2-.6,3.2l-.8,3-1.1,3-1.3,2.8-1.7,2.7-1.9,2.5-2.3,2.6-5.3,5.1-2.6,3-2.3,3.2-10.6,17.2v.4c0,0,2.3,1.7,2.3,1.7h.4l11.4-9,.3-.2h.8l.5.4.2.3-.5,9.6-1.2,11-1.8,10.7-2.3,10.3-3,10-3.7,9.7-4.4,9.4-5.2,9.1-3.6,5.1-3.8,4.6-4.2,4.2-4.3,3.8-4.5,3.2-5,3.1-5,2.6-5.2,2.4-5.3,2.1-5.5,1.9-5.7,1.7-11.6,3.1-15,3.6-.9-.2-.4-.5v-.7c0,0,.1-.5.1-.5l12.5-14,6.9-7.4,7-6.5,6.3-6.2,5.1-6.6,4-7,3.2-7.4,2.4-7.7,1.8-7.9,1.4-8.1,1.2-8.2.8-7.9v-4l-.8-9.6.3-5.2.9-5,1.6-5,2-4.7,2.5-4.5,2.9-4.4,3.1-4.3,7.3-9.2,3.9-4.3,4.1-4.1,4.3-3.8,4.6-3.5,4.8-3.2,5.3-2.8,3.6-1.2,3.8-.8,7-1M715.7,1076.6h4.5l4.3.5,4,1.1,3.7,1.7,3.4,2.2,3.2,2.9,2.8,3.4,2.5,3.9,19.3,31.6,5.9,10.7,2.5,6,1.8,6.2,1.1,6.5,1.1,20.3,2.2,13.5,3.5,13.2,4.6,12.9,1.4,3.2,4.7,8,.2.5-.2.6-.4.4h-.9c0,0-6.2-1.6-6.2-1.6l-8.1-2.8-7.6-3.3-7-3.8-6.7-4.5-6.1-4.8-5.5-5.3-5-5.8-4.5-6.4-4-6.8-3.4-7.2-2.8-7.6-2.3-8.1-1.7-8.6-1.1-9-.5-8.2.3-.7.4-.2h.7l22.2,5,.3-.2-.2-2.5-1-3.2-1.7-3.1-2.2-2.9-2.8-2.7-3.2-2.3-3.6-1.9-8.6-3.1-15.7-6.4-1.9-1.1-1.3-1-1.1-1.2-.9-1.5-.5-1.3-.2-1.2v-3l.6-3.2,2.8-10.4,1.3-2.6,1.6-1.7,1.9-1.2,2-.8,2.5-.6,5.6-.5M543.7,976h0,10.5c0,0,10.6,1.8,10.6,1.8l10.6,2.4,9.8,2,.4.2.5.6-.3,2.9-.2.6-.6.4-2,.6-2.5.5-15,1.2-14.6,2.3-14.5,3.2-14.2,4-14,4.7-13.9,5.2-13.8,5.5-13.6,5.8-2.4,1.1-2.2,1.5-2.1,1.7-4.1,3.8-5.6,6.3-1.4,2-.8,1.8v1.6c-.1,0,.4,1.6.4,1.6l1,1.2,1.4,1,2,.8,2.4.6,70.9,11.6,1.6.7.8.8.3.6v.7l-.3.4-.5.2-10.2,1.2-11.7,1.1-12.6,1-38.1,3.5-12.7.8-12.8.4-12.8-.2-12.8-.9-14-1.7-13.9-2-13.9-2.4-13.7-2.9-13.5-3.5-13.4-4-13.2-4.8-12.9-5.5-12.3-6.4-11.9-7.5-24.5-16.6-1-1-.7-1-.4-1.5v-1.2c.1,0,.6-1.2.6-1.2l.9-1.2,1.2-1.1,23-17.7,2.9-1.8,1.4-.5,1.7-.2h1.3c0,0,1.6.6,1.6.6l1.6,1,5.5,4.5,4,2.7,4.4,2.3,4.4,1.8,47.2,16.8,47.3,16.1,1.8.4h1.9c0,0,2,0,2,0l4-.8,2.1-.7,3.8-1.5,17.3-8.8,17.2-9.1,17.4-8.6,17.8-7.5,15.6-5.2,16.2-4,16.3-3,16.1-2.1M1244.5,975.3h0l6.2.3,17.8,2.4,17.2,3.6,16.9,4.9,16.5,5.9,16.1,6.8,15.8,7.7,15.6,8.4,16.8,9.8,3.3,1.3,3.7.9h3.4c0,0,1.7,0,1.7,0l14.1-3.8,14.1-4,14-4.2,13.8-4.7,13.7-5.1,13.3-5.7,13.1-6.3,16.7-9.2,3.3-1.2,1.7-.3h2.7l2.6.6,2.4,1.1,2.4,1.6,11,8.9,9.3,6.8,1.2,1.3.8,1.3.2,1.7-.3,1.4-.7,1.1-1.3,1.5-1.7,1.3-10.8,7.7-11.1,7.2-11.3,6.7-11.6,6-11.9,5.5-12.2,4.8-12.6,4.1-13,3.3-16.3,3.4-16.3,2.9-16.4,2.3-16.4,1.7-16.5.8h-16.5l-16.6-1-28.3-3.4-35.8-2.6-6.2-1.1-.6-.6v-1l.5-.6h.4c0,0,19.3-2.3,19.3-2.3l20-2.8,18.3-3.6,18.1-4.6.8-.5.7-.8.7-1.1,1.2-2.6.3-1.2v-1.3l-8.7-9.7-2.3-2.2-2.4-2-2.5-1.8-2.7-1.4-13.6-5.8-13.6-5.5-13.8-5.2-13.9-4.6-14.1-4-14.3-3.1-14.6-2.2-14.8-1.2-1.3-.2-3.8-1.2-.5-.3-.2-.5v-.4l.4-.7,4-1.5,12.1-4,5.9-1.5,5.9-1.2,5.8-.8,5.7-.3M902.3,880.5h0c0,0-4.8,17.5-4.8,17.5l-4.2,18.5v1.3c0,0,.4,4.2.4,4.2l.6,6.8v3.2l-.5,3.2-9.4,30.5-9.2,30.4-3.1,11.4-2.8,11.5-2.1,11.6-1.2,11.6.3,1.8,1,2.1,1.6,2,2.1,2.1,4.9,3.9,5,3.4,1,.4,2.2.3h1.2c0,0,2.7-.7,2.7-.7l2.8-1.2,2.6-1.5,2.2-1.8,1.8-1.9.9-1.8,2.2-9.5,1.1-3.2,1-1.6,1.2-1.3,2.4-2.1.8-.3.8.3,3.4,3.7,1,1.6.6,1.8.3,1.9v2l-1,4.8v2.4l.5,1.9,1,1.6,1.5,1.1,1.8.8,2.2.5,2.8.2,8.2,1.1,2.4.2h4.5l2.2-.3,2.1-.7,1.8-1.2,1.5-1.7,1.3-2.3,2.3-5.8.8-2.8.5-2.9v-2.9c0,0-.4-2.9-.4-2.9l-1-2.9-1.8-3.2-3.8-6.1-3.4-6.4-2.7-6.5-2-6.8-1.6-10-1.6-19.9-1-10-4.6-30-5.1-29.9-.7-2.1-2.4-4.2h-.2l-10,83.6-.4.7-.8.3-.8-.2-.4-.7-1.1-6.7-.8-13.3v-13.3c0,0,1.3-26.6,1.3-26.6l.2-13.2-.6-13.4-1.6-12.4M837.6,933.3h0c0,0-6.6.7-6.6.7l-6.2,1.4-6,2-5.8,2.6-17.2,8.5-5.8,2.4-1.2.9-1,1.2-1.9,2.8v.4l1.2,2.3.4.2,10.5-3,3.4-1.2,13.2-5.7,4.4-1.5,4.5-1.2,4.7-.8,4.7-.2,8.2.9h1.6l1.4-.3,1.2-.6,1-1.2.6-1.5.2-2-.2-2.2-.6-1.8-.9-1.2-1.1-.8-1.4-.5-1.6-.3-3.7-.3M1734.2,316v.2h.5c0,.1.4.5.4.5l3,4.3,1.7,2.5,1.3,2.6,11.8,30.7,13.9,33.8,7.8,23.9,6.2,24.1,4.8,24.4,3.4,24.6,2.2,24.8,1.1,25v25.1l-.9,20.2-1.8,20.2-2.2,20.2-1.9,20.3-3.7,31.5-5.6,31-7.1,30.7-8.2,30.5-4,12.3-4.9,12-6.1,11.5-17.6,25.8-19,30.8-10.2,14.8-13.1,16.3-13.7,15.9-28,31.4-2.4,2.4-2.8,2.4-2.8,2.1-4.7,3.2-1.9.8-1.8.5h-2.1l-1.9-.3-1.6-.7-2-1.3-14.4-13.7-12.7-11.5-.3-.4v-.4c0,0,0-.5,0-.5l.3-.4,13.9-11,13.8-12.2,12.9-12.7,12.2-13.2,11.3-13.7,10.6-14.1,9.9-14.7,9.3-15.1,13.5-24.9,12-25.5,10.9-26,10.4-26.4,6.3-17.1,5.7-17.2,5-17.4,4.3-17.5,3.6-17.6,2.9-17.8,2.2-17.9,1.4-18.1,1-27.6-.4-27.5-2.2-27.5-4.3-27.3-25.3-123.1-.8-4.9-1.6-14.6.4-.6.3-.2,1.8-.7M65.8,321.5h-.2.5c0,.1,1.3.9,1.3.9l.3.6v.5c0,0-21.7,61.6-21.7,61.6l-4.7,14.5-4.3,14.5-3.8,14.7-3.2,14.8-2.5,15-1.8,15-1,15.2-.7,21.7-.2,21.5.2,21.5.9,21.5,1.9,21.3,3,21.2,4.2,21,5.7,20.9,8.7,27.2,9.2,27,4.9,13.4,5.1,13.2,5.4,13.1,5.7,13,6,12.8,6.4,12.7,6.8,12.5,7.2,12.2,7.7,12,8.2,11.8,8.7,11.5,9.2,11.2,13.4,14.8,14.1,14.5,28.8,29v.8l-.2.4-11.8,12.1-6.9,6.8-7.1,6.5-1.4.7-1.3.2h-1.7l-3.6-.8-1.9-.7-1.6-.9-1.2-.8-20.5-18.8-9.7-9.8-8.8-10.5-15.7-21.5-15.1-21.9-30.9-45.6-1.2-1.4-8.8-8.8-7.2-9.3-6-10-4.8-10.7-3.8-11-2.9-11.3-2.2-11.6-1.7-11.8-9.8-76.6-4.1-38.3-2.6-38.4L0,557.1l-.2-21.2.5-21.2,1.3-21.2,2.2-21.1,3.3-21,4.4-20.9,5.7-20.7,3.8-11.8,4.6-11.4,5.1-11.1,5.6-10.9,6-10.6,6.5-10.4,6.9-10.2,7.1-9.9,1.5-1.2,1-.6.5-.2M966.5,915.5h-1.9l-3.4.6-3.2,1.2-2.8,1.7-1.2,1-1.6,2v.4c0,0,7.3,4.5,7.3,4.5l7.9,4,8.1,3,8.4,2.3,8.6,1.6,8.9.9,9.2.5h8.9l.2-.3-1.9-2.8-2.3-1.1-2.2-.6-10.1-1.9-4.9-1.2-4.8-1.5-4.5-1.9-4.6-2.4-4.2-2.9-5.6-4.6-1.4-.9-3.2-1.2-1.7-.3h-2M1359.3.2h-.2c0-.1.5,0,.5,0l.4.3,14.9,21.4,7.5,11.3,6.6,11.6,11.9,24.1,11.2,24.5,10.5,24.7,9.8,25,9,25.3,8.2,25.6,7.3,25.9,6.4,26.2,5.9,28.1,5.2,28.2,4.4,28.3,3.5,28.4,2.6,28.4,1.7,28.6.6,28.7-.4,28.8.5,6.2h.3c0,.1,7.2-6.1,7.2-6.1l6.4-7.2,5.2-7.8,3.9-8.7,4.6-12.4,4.9-12.1,5.2-12,5.7-11.8,6.1-11.5,6.7-11.2,7.3-10.9,7.9-10.5,1.6-1.6,1.2-.7h.6c0-.1.7.1.7.1l.4.5v.6c0,0-2.2,12.8-2.2,12.8l-2.9,14.2-27.7,116.6-1.2,3.9-1.5,3.8-1.9,3.5-2.2,3.2-2.6,3.2-2.8,2.9-3,2.8-26.8,22.4-23,20.5-22.6,21-22.1,21.5-14.8,15.6-13.8,16.3-13.2,16.9-38,51.6-13.1,16.9-13.7,16.2-3.7,4.5-9.8,14.6-25.3,35.7-25.7,35.5-16,21.2-16.6,20.8-2.7,3-3,2.8-5.7,5-.8.3-1.7-.6-.5-.4-.2-.5-.5-5.8v-3.2l.3-1.5,3.1-6.5,2-5.4,1.6-5.6,1.2-5.7,2.8-17.2,1.1-5.7,4-16.5,5-16.1,5.8-15.7,6.7-15.3,7.3-15,8.1-14.7,8.7-14.5,9.2-14.3,10.2-14.1,10.8-13.2,11.5-12.5,12.2-11.8,12.7-11.2,13.2-10.8,13.5-10.3,13.8-10,8.3-6.4,7.8-6.8,7.3-7.3,6.9-7.7,6.6-8,6.2-8.4,5.8-8.6,5.5-8.8,3.4-7.2,2.2-7.8,6.8-33.7,3.2-17.5,2.8-17.5,2.2-17.6,1.7-17.6,1-17.7.4-17.8-.4-17.8-1.3-28.5-1.5-28.5-2-28.4-2.9-28.3-2.3-17.8-2.8-17.7-3.2-17.6-3.7-17.5-4.2-17.4-4.8-17.2-5.3-17.1-5.9-16.9-23-59.7-23.3-59.5-.6-2.2-.2-1.8.3-.6.3-.2,1.3-.3M431.5.6h-.2c0-.1,2.2.8,2.2.8l.4.8v.5c-.1,0-24.6,62.2-24.6,62.2l-20.9,54.4-11.4,33.5-9.1,34.1-7.1,34.5-5.3,34.9-3.1,27.9-2.4,27.8-1.9,28-1.5,28-.6,14.9v15l.6,15,1.2,14.9,3,23.4,7.2,46.6,3.3,23.2,2.1,11,3.3,10.1,4.4,9.5,5.3,8.9,6,8.4,6.7,8.2,7,7.9,12.4,13.3,14.6,17.2,4.9,5.7,5,5.5,5.3,5.1,5.6,4.8,12,9.6,11.8,9.7,11.5,10,11.2,10.2,10.9,10.5,10.6,10.9,10.2,11.2,9.8,11.6,8.2,10,8.2,10.2,8,10.3,7.7,10.2,7,10.9,6.3,11.2,5.5,11.8,4.5,12.3,3.8,15,2.8,15.4,4.5,31v1l-.3,1.8-1.6,5-.2.3-.5.4h-.8l-.3-.2-6.7-5.9-3.2-3-2.8-3.3-39.2-53.8-27.5-36.2-27.8-37.3-14-18.5-14.3-18.3-14.8-18-15.4-17.5-16-16.9-29.9-29.8-15-14.8-15.1-14.4-15.4-14.4-15.6-14-16-13.7-16.5-13.1-6.6-4.7-3.2-2.5-2.7-2.8-7-8.3-4.4-5.8-1.8-2.9-1.5-3.1-1.1-3.2-4.8-18.5-4.1-18.5-3.4-18.6-2.9-18.7-2.5-18.8-2.2-18.8-3.6-37.6v-2.4c.1,0,.3-1.8.3-1.8l.4-.5.3-.2,1.8-.4.7.2.4.5,11.8,33.5,14.6,42.6,3.1,8.2,3.3,8.1,3.7,7.8,4.1,7.6,4.7,7.4,5.3,7,6,6.6,1.1,1,4.8,3.6.4-.3-.5-31.3.6-32,1.7-31.8,2.9-31.5,3.8-31.1,5.2-31.1,6.4-30.9,7.5-30.7,8.4-30.2,4.5-15.1,4.6-15,4.9-14.9,5.1-14.8,5.5-14.7,5.8-14.5,6-14.4,6.5-14.2,6.9-14,7.2-13.9,7.5-13.6,8.2-13.4,8.6-13.2,8.7-12.4.4-.3h.6M651.9,839.2v-.2c0,0,3,.3,3,.3l2.8.8,2.5,1.1,2.2,1.5,1.7,1.8,1.2,2.1.8,2.4.2,2.5-.3,2.5-.9,2.2-1.3,2-1.8,1.8-2.1,1.4-2.4,1-2.7.6-2.9.2-3.4-.3-2.8-.8-2.8-1.4-2.5-1.7-2-2-1.5-2.2-1-2.5-.3-2.6.3-2.3.9-2.2,1.5-1.8,1.9-1.6,2.5-1.3,2.7-.8,3.1-.5h3.4M1122.9,765.7h0l4.3,2,1.3.9,38.4,33.7,3.9,3.6,3.2,3.6,2.4,3.5,1.7,3.5.8,3.7v4l-.8,4-1.6,4.1-.9,1.8-2.4,3.5-3,3.1-1.6,1.1-1.7,1-8.6,3-3.1,1.5-2.8,1.8-2.5,2.1-2.1,2.5-1.7,2.9-1.2,3.5-.4.8-.9.9-1.8.8h-.9l-.6-.7-.8-3.3-.7-4.3.2-3.2.8-3.1,2.6-8,1.6-7.9.5-7.8-.6-7.6-1.7-7.4-2.8-7.3-3.8-7.2-6.4-9.2-1.3-2.4-1.2-2.7-5-13v-1l.6-.5.6-.3M840.9,795.3h-.2c0,0,.2,1.2.2,1.2l.2.5,4.3,5.8,3.8,6.1,3,6.1,2.6,6.5,2.1,6.7,1.6,6.8,1.2,7,1.1,9.3.5,2.3.9,2.1,1.3,1.7,2.1,1.3,2.5,1,5,1.5.3-.2.8-4.5.2-2.5-.3-2.3-.9-2.6-4.6-10.4-1-2.6-.8-2.8-1.3-8.8-2-5.5-2.8-4.8-3.5-4.4-3.9-3.9-4.3-3.8-8.1-6.8M782,820.2h1.8l3.5.8,3.2,1.4,3,2,2.5,2.5,2,2.8,1.4,3.2.5,1.7.3,1.7v1.8c0,0,0,1.8,0,1.8l-.7,3.5-1.3,3.3-1.8,3-2.4,2.6-2.5,1.9-3.1,1.4-3.1.7h-1.7l-1.8-.2-3.2-.9-3.2-1.7-3-2.3-2.7-2.8-2.2-3.2-1.5-3.2-.9-3.6v-1.8c0,0,.2-3.2.2-3.2l.9-3.1,1.7-3.1,1.9-2.3,2.7-2.2,2.9-1.5,3.2-.9h3.4M959.2,799h0l-4.1,2.3-.8.8-11.7,20.2-11.3,20.5-.2.9v1l.5,2.5.9,2.2.7.8h2.7c0,0,2.8-.2,2.8-.2l2.4-.8,1-.6.6-.7,3.5-5.2,3.2-5.5,2.8-5.8,2.3-6,2-6.2,1.5-6.5,1-6.8.5-6.5-.3-.4M702.7,422.1h0c0-.1-.4-.1-.4-.1l-5.6,5.2-2.9,2.8-2.5,3.1-15.4,22.9-15.1,23-5.2,9.1-3.5,9-2,9-.2,8.9,1.4,8.8,3,8.7,4.7,8.5,8.3,10.9,1.6,2.4,1.2,2.5.7,2.5.2,2.8-.3,2.7-.9,2.8-3.6,7.9-1.4,5-.5,4.9.2,4.8.9,4.8,1.6,4.8,2.1,4.8,5.9,10.2,2.7,5.5,5.2,11.2,3,7,5.6,8.5,3.1,6,1.8,6,.5,5.5-.7,5.7-2.1,5.8-3.3,5.7-4.6,5.9-5.4,5.3-5.5,4-5.8,2.8-6.2,1.5h-6c0,0-6.1-1.1-6.1-1.1l-6-2.5-5.7-3.6h-.3c0,0,.7,6,.7,6l.7,2.8.8,2.5,1,2.2,1.2,1.9,1.3,1.5,1.5,1.2,1.7,1,1.9.6,2,.3h2.1l2.4-.3,2.5-.6,2.8-1,7.8-3.3,2.5-.8,2.5-.5h2.4c0,0,2.8.2,2.8.2l2.6.8,3.7,1.9,1.3.2h1.4l3.1-.4,4.6-1.2,2.6-1.2,5.4-3.3,2.6-1,2.9-.8,2.5-1,2.3-1.2,2.1-1.3,1.9-1.5,1.7-1.6,1.4-1.7,1.2-1.8,1.1-2,.8-2,.7-2.2.5-2.2.3-2.3v-4.8c0,0-1.9-17.4-1.9-17.4l-2.2-14.8-3.2-14.6-10-29.6-3.8-15.8-3.2-15.8-3.4-15.8-3-11.2-3.8-11-4.5-10.8-7-13.4-1.2-3-.8-2.9-.4-2.8v-3l.5-2.9.9-3,7.6-18.9,17.8-47.1v-.4c0,0-2.2-.8-2.2-.8"/>
</svg>