<?xml version="1.0" encoding="UTF-8"?>
<svg id="a" data-name="Ebene 1" xmlns="http://www.w3.org/2000/svg" viewBox="0 0 74 74">
  <defs>
    <style>
      .b {
        fill: none;
        stroke: #000;
        stroke-linecap: round;
        stroke-linejoin: round;
        stroke-width: 2px;
      }
    </style>
  </defs>
  <path class="b" d="M48.84,10.33c-.86-.81-1.82-1.54-2.79-2.23-1.82-1.3-3.83-2.08-6.09-2.16-2.75-.1-5.5-.25-8.25-.35-2.29-.08-4.35-.9-6.4-1.85-1.53-.71-3.11-1.37-4.73-1.78-3.25-.84-6.37-.17-9,1.81-2.37,1.78-4.58,3.82-6.06,6.48-1.1,1.97-1.5,4.06-1.38,6.32.11,2.15,1.05,3.99,1.88,5.88.79,1.81,1.62,3.6,2.28,5.46.59,1.67.49,3.42.18,5.16-.24,1.31-.4,2.63-.58,3.95-.2,1.46-.36,2.92-.58,4.38-.5,3.35.49,6.28,2.61,8.81,1.75,2.11,3.66,4.08,5.51,6.11"/>
  <path class="b" d="M53.6,14.18c3.86,3.18,7.77,6.29,11.6,9.49,1.91,1.6,3.03,3.71,3.53,6.16.44,2.14.12,4.22-.35,6.32-.55,2.43-1.1,4.86-1.49,7.32-.28,1.78-.07,3.56.46,5.31.63,2.1,1.13,4.25,1.66,6.38.16.66.43,1.36.33,2-.27,1.77-.48,3.55-1.38,5.18-.71,1.28-1.56,2.43-2.61,3.43-1.48,1.41-2.8,3-4.58,4.11-1.76,1.11-3.66,1.61-5.68,1.77-1.96.16-3.92.3-5.88.43-2.37.16-4.74.29-7.1.43-1.51.09-3.02.12-4.52.32-.62.09-3.11.1-4.01-.08-2.61-.52-4.83-1.79-6.62-3.82-2.29-2.6-4.68-5.13-7.02-7.69-.39-.42-.83-.82-1.13-1.31"/>
  <path class="b" d="M49.65,61.4c-.13,1.51,1.08,3.12,3.16,3.48,2.99.52,5.84-.58,7.44-3.35,1.15-1.99.4-4.18-1.71-5.07-2.28-.96-4.44-.44-6.45.85-1.08.69-1.84,1.67-2.29,2.87-.13.35-.11.76-.16,1.14"/>
  <path class="b" d="M39.17,55.23c.01,1.35.84,2.36,2.22,2.73,1.16.31,2.55-.29,3.15-1.44.51-.98.39-2.5-.48-3.31-1.01-.93-1.97-1.18-3.24-.63-1.11.49-1.65,1.37-1.65,2.58"/>
  <path class="b" d="M58.12,26.03c-1.2-.11-2.81,1.16-2.79,2.8.02,1.58,1.23,2.93,2.94,2.89,1.57-.04,2.76-1.24,2.79-2.89.04-1.65-1.63-2.97-2.86-2.8"/>
  <path class="b" d="M23.32,11.03c-.86.17-1.76.24-2.57.53-.79.28-1.58.68-2.22,1.21-1.25,1.04-1.59,2.79-.3,4.28,1.1,1.27,2.56,1.94,4.16,2.29,2.07.45,4.14.51,6.17-.27.77-.29,1.47-.66,2.09-1.22,1.47-1.33,1.43-3.09,0-4.53-1.17-1.17-2.65-1.77-4.23-2.06-.98-.18-2.01-.16-3.01-.24"/>
  <path class="b" d="M22.31,47.05c-.82.09-1.58.27-2.23.85-.94.84-1.24,1.9-1.21,3.09.08,2.8,2.15,5.62,5.02,6.37,2.76.72,4.86-1.03,4.73-3.86-.14-2.94-2.33-5.54-5.09-6.31-.37-.1-.76-.1-1.15-.15"/>
</svg>