<?xml version="1.0" encoding="UTF-8"?>
<svg id="a" data-name="Ebene 1" xmlns="http://www.w3.org/2000/svg" viewBox="0 0 74 74">
  <defs>
    <style>
      .b {
        fill: #000;
        stroke-width: 0px;
      }
    </style>
  </defs>
  <path class="b" d="M32.76,37.19c0-2.14-1.73-3.88-3.87-3.88s-3.87,1.74-3.87,3.88,1.73,3.88,3.87,3.88,3.87-1.74,3.87-3.88ZM32.76,56.64c2.14,0,3.87-1.74,3.87-3.88s-1.73-3.88-3.87-3.88-3.87,1.74-3.87,3.88,1.73,3.88,3.87,3.88ZM8.24,50.69c0-2.14-1.73-3.88-3.87-3.88s-3.87,1.74-3.87,3.88,1.73,3.88,3.87,3.88,3.87-1.74,3.87-3.88ZM53.28,18.33c0-2.14-1.73-3.88-3.87-3.88s-3.87,1.74-3.87,3.88,1.73,3.88,3.87,3.88,3.87-1.74,3.87-3.88ZM40.91,22.45c-2.75-1.86-6.06-2.94-9.62-2.94h0c-2.37,0-4.64.48-6.7,1.35-3.09,1.31-5.72,3.49-7.57,6.24-1.86,2.75-2.94,6.07-2.94,9.64,0,3.75,1.2,7.23,3.24,10.06,2.04,2.83,4.91,5.02,8.26,6.2.12.04.24.06.36.06.45,0,.87-.28,1.02-.72.2-.57-.1-1.19-.66-1.38-2.92-1.03-5.44-2.94-7.22-5.42-1.78-2.48-2.83-5.51-2.83-8.79,0-2.08.42-4.06,1.18-5.86,1.14-2.7,3.05-5,5.45-6.63,2.4-1.62,5.29-2.57,8.41-2.57,2.08,0,4.06.42,5.86,1.18,2.7,1.14,5,3.05,6.62,5.46,1.62,2.41,2.57,5.3,2.57,8.42,0,2.82-.77,5.45-2.11,7.7-1.34,2.25-3.26,4.13-5.54,5.42-.52.29-.71.96-.41,1.48.2.35.57.55.94.55.18,0,.36-.05.53-.14,2.61-1.48,4.8-3.62,6.34-6.2,1.54-2.58,2.42-5.6,2.42-8.82,0-2.38-.48-4.65-1.35-6.71-1.31-3.09-3.49-5.72-6.24-7.58ZM43.94,13.42c-3.18-1.43-6.7-2.23-10.41-2.23h0c-3.5,0-6.84.71-9.87,2-4.55,1.93-8.42,5.14-11.16,9.2-2.73,4.05-4.33,8.94-4.33,14.19,0,3.5.71,6.84,1.99,9.88,1.93,4.56,5.14,8.43,9.19,11.17,4.05,2.74,8.93,4.34,14.18,4.34h0c3.5,0,6.84-.71,9.87-2,4.55-1.93,8.42-5.15,11.16-9.2,2.73-4.05,4.33-8.94,4.33-14.19,0-2.36-.38-4.77-1.03-7.06-.65-2.29-1.58-4.46-2.69-6.35-.2-.34-.56-.53-.94-.53-.19,0-.38.05-.55.15-.52.3-.69.97-.38,1.49,1.01,1.72,1.87,3.73,2.47,5.85.6,2.12.95,4.34.95,6.46,0,3.21-.65,6.26-1.82,9.04-1.76,4.16-4.7,7.71-8.4,10.21-3.7,2.5-8.16,3.96-12.96,3.96-3.2,0-6.25-.65-9.03-1.82-4.16-1.76-7.7-4.71-10.2-8.41-2.5-3.71-3.96-8.17-3.96-12.98,0-3.21.65-6.26,1.82-9.04,1.76-4.16,4.7-7.71,8.4-10.21,3.7-2.5,8.16-3.96,12.96-3.96,3.4,0,6.61.73,9.52,2.04.14.07.3.1.44.1.41,0,.81-.24.99-.64.25-.55,0-1.19-.54-1.44ZM63.35,10.84C56.42,3.9,47.02,0,37.22,0c-5.1,0-9.96,1.04-14.39,2.91-6.63,2.81-12.28,7.5-16.26,13.4C2.58,22.22.25,29.34.26,37c0,2.35.22,4.67.66,6.94.1.52.55.88,1.06.88.07,0,.14,0,.2-.02.59-.11.97-.68.86-1.27-.41-2.14-.62-4.33-.62-6.54,0-4.81.97-9.39,2.73-13.56,2.64-6.25,7.05-11.57,12.61-15.33,5.55-3.76,12.24-5.95,19.45-5.95,9.23,0,18.08,3.67,24.6,10.2,6.52,6.53,10.19,15.39,10.19,24.63s-3.67,18.1-10.19,24.63c-6.53,6.53-15.37,10.2-24.6,10.2s-18.08-3.67-24.6-10.2c-.89-.9-1.89-1.96-2.7-2.86-.4-.45-.76-.86-1.03-1.18-.13-.16-.25-.3-.33-.4-.04-.05-.08-.1-.1-.13-.01-.02-.02-.03-.03-.04h0s0-.01,0-.01h0c-.21-.32-.56-.5-.91-.5-.2,0-.4.06-.58.17-.5.32-.65.99-.33,1.5.04.06.08.12.12.18.08.11.18.23.29.37.2.24.46.54.76.89.9,1.02,2.17,2.41,3.32,3.56,6.93,6.94,16.33,10.84,26.14,10.84s19.2-3.9,26.14-10.84c6.93-6.94,10.83-16.35,10.83-26.16s-3.89-19.22-10.83-26.16Z"/>
</svg>