<?xml version="1.0" encoding="UTF-8"?>
<svg xmlns="http://www.w3.org/2000/svg" viewBox="0 0 74 74">
  <g id="a" data-name="Ebene 1">
    <polygon points="37.39 4.87 37.38 4.88 37.37 4.87 37.39 4.87"/>
  </g>
  <g id="b" data-name="Ebene 2">
    <g>
      <path d="M72.98,66.02h-1.59l-3.05-8.5h.21c.56,0,1.02-.46,1.02-1.02s-.46-1.02-1.02-1.02h-.94l-2.51-6.99c.56,0,1.01-.46,1.01-1.02s-.46-1.02-1.02-1.02h-.72l-2.23-6.22h.17c.56,0,1.02-.46,1.02-1.02s-.46-1.02-1.02-1.02h-.9l-1.4-3.9h.03c.56,0,1.02-.46,1.02-1.02s-.46-1.02-1.02-1.02h-.76l-.21-.59c-.19-.53-.78-.81-1.3-.62-.5.18-.75.7-.63,1.2h-4.96l-.12-.48c-.13-.55-.68-.88-1.23-.75-.55.13-.89.68-.75,1.23h0s-.78,0-.78,0l-.71,2.04h1.98l.93,3.9h-4.27l-.71,2.04h5.47l1.49,6.22h-6.69l-.62-5.2-1.53,4.39.1.81h-.38l-.71,2.04h1.33l.84,6.98h-4.6l-.71,2.04h5.55l1.02,8.5h-9.06v-5.86c-.33.1-.67.15-1.02.15s-.69-.06-1.02-.15v5.86h-9.06l1.02-8.5h5.55l-.71-2.04h-4.6l.84-6.98h1.33l-.71-2.04h-.38l.1-.81-1.53-4.39-.62,5.2h-6.69l1.49-6.22h5.47l-.71-2.04h-4.27l.93-3.9h1.98l-.71-2.04h-.78,0c.13-.55-.21-1.1-.75-1.24-.54-.13-1.1.21-1.23.75l-.12.48h-4.96c.12-.5-.13-1.03-.63-1.2-.53-.19-1.11.09-1.3.62l-.21.59h-.76c-.56,0-1.02.46-1.02,1.02s.46,1.02,1.02,1.02h.03l-1.4,3.9h-.9c-.56,0-1.02.46-1.02,1.02s.46,1.02,1.02,1.02h.17l-2.23,6.22h-.72c-.56,0-1.02.46-1.02,1.02s.45,1.01,1.01,1.02l-2.51,6.99h-.94c-.56,0-1.02.46-1.02,1.02s.46,1.02,1.02,1.02h.21l-3.05,8.5h-1.59c-.56,0-1.02.46-1.02,1.02s.46,1.02,1.02,1.02h.86l-.38,1.07c-.19.53.09,1.11.62,1.3.11.04.23.06.34.06.42,0,.81-.26.96-.68l.63-1.76h9.22l-.28,1.17c-.13.55.21,1.1.75,1.23.08.02.16.03.24.03.46,0,.88-.31.99-.78l.39-1.65h9.27l-.15,1.29c-.07.56.33,1.07.89,1.13.04,0,.08,0,.12,0,.51,0,.95-.38,1.01-.9l.18-1.53h9.3v1.41c0,.56.46,1.02,1.02,1.02s1.02-.46,1.02-1.02v-1.41h9.3l.18,1.53c.06.52.5.9,1.01.9.04,0,.08,0,.12,0,.56-.07.96-.57.89-1.13l-.15-1.29h9.27l.39,1.65c.11.47.53.78.99.78.08,0,.16,0,.24-.03.55-.13.89-.68.75-1.23l-.28-1.17h9.22l.63,1.76c.15.42.54.68.96.68.11,0,.23-.02.34-.06.53-.19.81-.77.62-1.3l-.38-1.07h.86c.56,0,1.02-.46,1.02-1.02s-.46-1.02-1.02-1.02ZM16.15,34.3h5.18l-.93,3.9h-5.64l1.4-3.9ZM14.02,40.23h5.89l-1.49,6.22h-6.63l2.23-6.22ZM11.06,48.49h6.88l-1.67,6.98h-7.71l2.51-6.98ZM13.75,66.02H4.77l3.05-8.5h7.96l-2.03,8.5ZM24.87,66.02h-9.03l2.03-8.5h8.01l-1.02,8.5ZM26.13,55.48h-7.77l1.67-6.98h6.93l-.84,6.98ZM65.45,55.48h-7.71l-1.67-6.98h6.88l2.51,6.98ZM59.98,40.23l2.23,6.22h-6.63l-1.49-6.22h5.89ZM52.67,34.3h5.18l1.4,3.9h-5.64l-.93-3.9ZM47.04,48.49h6.93l1.67,6.98h-7.77l-.84-6.98ZM49.13,66.02l-1.02-8.5h8.01l2.03,8.5h-9.03ZM60.25,66.02l-2.03-8.5h7.96l3.05,8.5h-8.97Z"/>
      <path d="M37,55.26c-.4,0-.75-.25-.88-.62L21.38,12.3c-.15-.44.04-.92.45-1.13l14.74-7.56c.13-.07.28-.1.42-.1s.29.03.42.1l14.74,7.56c.41.21.61.7.45,1.13l-14.74,42.34c-.13.37-.48.62-.88.62ZM36.99,17l8.4-4.98-8.4-4.98-8.39,4.98,8.39,4.98Z"/>
    </g>
  </g>
</svg>