<?xml version="1.0" encoding="UTF-8"?>
<svg id="a" data-name="Ebene 1" xmlns="http://www.w3.org/2000/svg" viewBox="0 0 74 74">
  <defs>
    <style>
      .c {
        fill: rgba(0, 0, 0, .25);
      }

      .c, .d, .e {
        stroke-width: 0px;
      }

      .d {
        fill: #000;
      }

      .e {
        fill: rgba(0, 0, 0, .45);
      }
    </style>
  </defs>
  <g id="b" data-name="Layer 2">
    <path class="d" d="M13.78,13.13L-.04,44.16h60.18l13.82-31.03H13.78ZM58.09,41.93H4.11L15.63,15.82h54.14l-11.68,26.11Z"/>
    <polygon class="d" points="62.37 32.36 61.37 34.59 17.29 34.59 25.54 15.82 28.4 15.82 21.19 32.36 62.37 32.36"/>
    <g>
      <path class="d" d="M51.38,26.53h1.44c-.12.27-.2.44-.23.53-.38.88-.73,1.5-1.04,1.88-.62.77-1.45,1.23-2.48,1.39-.39.06-1.31.09-2.77.09-.65,0-1.11-.01-1.38-.04-.27-.03-.51-.09-.74-.19-.91-.36-1.09-1.3-.55-2.82.25-.7.56-1.45.92-2.26.74-1.65,1.26-2.73,1.56-3.25.49-.82,1.2-1.44,2.12-1.85.58-.26,1.26-.41,2.05-.46.39-.02,1.07-.04,2.06-.04.93,0,1.55.06,1.87.18.71.27.95.88.7,1.81-.09.34-.26.78-.49,1.31-.03.06-.07.16-.14.29h-1.42c.1-.24.16-.39.2-.46.37-.86.46-1.39.27-1.59-.16-.18-.68-.26-1.56-.26-1.16,0-2.01.03-2.55.1-.33.04-.62.13-.85.27-.23.14-.46.34-.67.62-.23.3-.5.8-.82,1.51-1.11,2.49-1.74,4.05-1.88,4.66-.1.4-.08.68.06.84.16.19.5.29,1.04.32.33.01.68.02,1.06.02.88,0,1.53-.03,1.97-.09.43-.06.76-.16.97-.3.3-.21.62-.67.94-1.39.1-.24.22-.51.35-.82Z"/>
      <path class="d" d="M53.14,30.27l4.73-10.62h5.35c.94,0,1.59.16,1.94.48.31.28.41.7.31,1.27-.06.34-.21.78-.46,1.33-.4.91-.82,1.57-1.23,1.98-.45.45-1.01.7-1.7.76,1.01.07,1.24.74.67,2.01l-1.24,2.78h-1.44l1.11-2.5c.29-.65.34-1.1.15-1.34-.21-.22-.62-.33-1.24-.32h-3.67l-1.85,4.16h-1.44ZM57.01,24.82h3.52c.72,0,1.28-.1,1.69-.29.47-.22.86-.68,1.16-1.37.42-.94.6-1.53.53-1.77-.08-.3-.5-.44-1.26-.44h-3.92l-1.72,3.87Z"/>
    </g>
    <path class="e" d="M70.15,21.68l-1.2,2.69h.82l-11.68,26.11H4.11l2.79-6.32h-3.13L-.04,52.71h60.18l13.82-31.03h-3.81Z"/>
    <path class="c" d="M70.15,30.23l-1.2,2.69h.82l-11.68,26.11H4.11l2.79-6.32h-3.13L-.04,61.26h60.18l13.82-31.03h-3.81Z"/>
  </g>
</svg>