<?xml version="1.0" encoding="UTF-8"?>
<svg id="a" data-name="Ebene 1" xmlns="http://www.w3.org/2000/svg" viewBox="0 0 74 74">
  <defs>
    <style>
      .b {
        fill: #000;
      }

      .b, .c {
        stroke-width: 0px;
      }

      .c {
        fill: none;
      }
    </style>
  </defs>
  <circle class="c" cx="37" cy="37" r="5.23"/>
  <path class="c" d="M21.57,36.25h7.93c.35-3.57,3.19-6.4,6.75-6.76v-7.93c-3.84.18-7.43,1.77-10.17,4.51-2.74,2.74-4.32,6.33-4.51,10.18Z"/>
  <path class="c" d="M54.74,36.26h12.61c-.09-3.84-.89-7.56-2.38-11.07-1.53-3.61-3.72-6.86-6.51-9.65-2.79-2.79-6.04-4.98-9.65-6.51-3.51-1.49-7.23-2.28-11.07-2.38v12.61c9.21.38,16.61,7.78,16.99,17Z"/>
  <path class="c" d="M36.26,52.43v-7.93c-3.57-.35-6.41-3.19-6.76-6.76h-7.93c.18,3.85,1.76,7.43,4.51,10.18,2.74,2.74,6.33,4.32,10.18,4.51Z"/>
  <path class="c" d="M47.92,26.08c-2.74-2.74-6.33-4.32-10.17-4.51v7.93c3.57.35,6.4,3.19,6.75,6.76h7.93c-.18-3.85-1.76-7.44-4.51-10.18Z"/>
  <path class="c" d="M52.43,37.74h-7.93c-.35,3.57-3.19,6.41-6.76,6.76v7.93c3.85-.18,7.44-1.76,10.18-4.51,2.74-2.74,4.33-6.33,4.51-10.18Z"/>
  <path class="c" d="M37.74,54.74v12.61c3.84-.09,7.56-.89,11.07-2.38,3.61-1.53,6.86-3.72,9.65-6.51,2.79-2.79,4.98-6.04,6.51-9.65,1.49-3.52,2.28-7.24,2.38-11.07h-12.61c-.38,9.21-7.78,16.62-16.99,17Z"/>
  <path class="c" d="M36.25,19.26V6.65c-3.83.09-7.55.89-11.07,2.38-3.61,1.53-6.86,3.72-9.65,6.51-2.79,2.79-4.98,6.04-6.51,9.65-1.49,3.51-2.28,7.23-2.38,11.07h12.61c.38-9.21,7.78-16.61,16.99-16.99Z"/>
  <path class="c" d="M19.26,37.75H6.65c.09,3.84.89,7.56,2.38,11.07,1.53,3.61,3.72,6.86,6.51,9.65,2.79,2.79,6.04,4.98,9.65,6.51,3.51,1.49,7.24,2.28,11.07,2.38v-12.61c-9.21-.38-16.61-7.78-16.99-16.99Z"/>
  <path class="b" d="M71.69,33.67v2.58h-2.03c-.39-17.45-14.46-31.52-31.91-31.92v-2.03h2.58V0h-6.65v2.31h2.58v2.03c-17.45.39-31.52,14.46-31.91,31.91h-2.03v-2.58H0v6.65h2.31v-2.58h2.03c.39,17.45,14.46,31.52,31.91,31.91v2.03h-2.58v2.31h6.65v-2.31h-2.58v-2.03c17.45-.39,31.53-14.46,31.91-31.92h2.03v2.58h2.31v-6.65h-2.31ZM48.82,9.03c3.61,1.53,6.86,3.72,9.65,6.51,2.79,2.79,4.98,6.04,6.51,9.65,1.49,3.51,2.28,7.24,2.38,11.07h-12.61c-.38-9.21-7.78-16.61-16.99-17V6.65c3.83.09,7.55.89,11.07,2.38ZM37.75,29.5v-7.93c3.84.18,7.43,1.77,10.17,4.51,2.74,2.74,4.33,6.33,4.51,10.18h-7.93c-.35-3.57-3.19-6.41-6.75-6.76ZM42.23,37c0,2.88-2.35,5.23-5.23,5.23s-5.23-2.35-5.23-5.23,2.35-5.23,5.23-5.23,5.23,2.35,5.23,5.23ZM36.25,29.5c-3.57.35-6.4,3.19-6.75,6.76h-7.93c.18-3.85,1.76-7.43,4.51-10.18,2.74-2.74,6.33-4.32,10.17-4.51v7.93ZM29.5,37.75c.35,3.57,3.19,6.41,6.76,6.76v7.93c-3.85-.18-7.44-1.76-10.18-4.51-2.74-2.74-4.32-6.33-4.51-10.18h7.93ZM37.74,44.5c3.57-.35,6.41-3.19,6.76-6.76h7.93c-.18,3.85-1.76,7.44-4.51,10.18-2.74,2.74-6.33,4.32-10.18,4.51v-7.93ZM9.03,25.18c1.53-3.61,3.72-6.86,6.51-9.65,2.79-2.79,6.04-4.98,9.65-6.51,3.51-1.49,7.23-2.28,11.07-2.38v12.61c-9.21.38-16.61,7.78-16.99,16.99H6.65c.09-3.84.89-7.56,2.38-11.07ZM25.18,64.97c-3.61-1.53-6.86-3.72-9.65-6.51-2.79-2.79-4.98-6.04-6.51-9.65-1.49-3.51-2.28-7.23-2.38-11.07h12.61c.38,9.21,7.78,16.61,16.99,16.99v12.61c-3.84-.09-7.56-.89-11.07-2.38ZM64.97,48.82c-1.53,3.61-3.72,6.86-6.51,9.65-2.79,2.79-6.04,4.98-9.65,6.51-3.51,1.49-7.24,2.28-11.07,2.38v-12.61c9.21-.38,16.62-7.78,16.99-17h12.61c-.09,3.84-.89,7.56-2.38,11.07Z"/>
</svg>