<?xml version="1.0" encoding="UTF-8"?>
<svg id="a" data-name="Ebene 1" xmlns="http://www.w3.org/2000/svg" viewBox="0 0 74 74">
  <defs>
    <style>
      .b {
        fill: #000;
        stroke-width: 0px;
      }
    </style>
  </defs>
  <path class="b" d="M63.68,68.51H4.59c-2.53,0-4.59-2.06-4.59-4.59V4.83C0,2.3,2.06.24,4.59.24h59.09c2.53,0,4.59,2.06,4.59,4.59v59.09c0,2.53-2.06,4.59-4.59,4.59ZM4.59,2.54c-1.26,0-2.29,1.03-2.29,2.29v59.09c0,1.26,1.03,2.29,2.29,2.29h59.09c1.26,0,2.29-1.03,2.29-2.29V4.83c0-1.26-1.03-2.29-2.29-2.29H4.59Z"/>
  <g>
    <path class="b" d="M15.55,18.79h17.99l4.39,4.43v10.04l-4.43,4.47h-12.38v9.76h-5.57v-28.69ZM31,33.05l1.43-1.43v-6.72l-1.43-1.43h-9.88v9.59h9.88Z"/>
    <path class="b" d="M43.67,43.3v-11.68h-3.69v-4.55h3.77v-6.64h5.33v6.64h6.23v4.59h-6.23v9.88l1.39,1.35h4.84v4.59h-7.42l-4.22-4.18Z"/>
  </g>
  <g>
    <path class="b" d="M17.51,55.29l-1.73.89v-1.43l2.04-1.12h1.25v8.03h-1.56v-6.36Z"/>
    <path class="b" d="M21.13,60.42v-1.02h1.56v.53l.4.4h1.95l.4-.4v-1.85l-.65.65h-2.53l-1.24-1.24v-2.63l1.24-1.24h3.51l1.24,1.24v5.55l-1.24,1.24h-3.39l-1.24-1.24ZM24.7,57.4l.75-.75v-1.3l-.4-.4h-2.06l-.4.4v1.64l.4.4h1.72Z"/>
    <path class="b" d="M28.72,60.42v-1.31h1.56v.84l.38.38h2.04l.38-.38v-1.81l-.38-.38h-3.86v-4.13h5.64v1.33h-4.1v1.47h3.02l1.25,1.25v2.74l-1.24,1.24h-3.44l-1.24-1.24Z"/>
    <path class="b" d="M36.02,61.16v-.73l.49-.49h.84l.48.5v.71l-.48.5h-.84l-.49-.49Z"/>
    <path class="b" d="M39.26,60.32v-5.37l1.33-1.33h3.55l1.33,1.33v5.37l-1.33,1.33h-3.55l-1.33-1.33ZM43.41,60.32l.5-.5v-4.36l-.5-.5h-2.09l-.5.5v4.36l.5.5h2.09Z"/>
    <path class="b" d="M47.25,60.42v-2.18l.72-.72-.61-.61v-2.04l1.24-1.24h3.46l1.24,1.24v2.04l-.61.61.72.72v2.18l-1.24,1.24h-3.69l-1.24-1.24ZM51.46,60.32l.4-.4v-1.28l-.4-.4h-2.25l-.4.4v1.28l.4.4h2.25ZM51.35,56.93l.4-.4v-1.17l-.4-.4h-2.02l-.4.4v1.17l.4.4h2.02Z"/>
  </g>
  <g>
    <path class="b" d="M10.49,8.8v-.09h-3.41v-1.13h4.79v1.25l-2.74,5.57h-1.4l2.76-5.6Z"/>
    <path class="b" d="M12.6,13.35v-1.85l.61-.61-.52-.52v-1.73l1.05-1.05h2.94l1.05,1.05v1.73l-.52.52.61.61v1.85l-1.05,1.05h-3.14l-1.05-1.05ZM16.18,13.27l.34-.34v-1.09l-.34-.34h-1.91l-.34.34v1.09l.34.34h1.91ZM16.08,10.39l.34-.34v-.99l-.34-.34h-1.72l-.34.34v.99l.34.34h1.72Z"/>
  </g>
  <path class="b" d="M69.41,74.24H9.91l-8.21-6.76,1.46-1.77,7.57,6.24h58.68c1.26,0,2.29-1.03,2.29-2.29V10.97l-6.39-7.75,1.77-1.46,6.92,8.38v59.51c0,2.53-2.06,4.59-4.59,4.59Z"/>
  <rect class="b" x="67.68" y="64.97" width="2.29" height="8.04" transform="translate(-28.19 78.25) rotate(-50.52)"/>
</svg>