<?xml version="1.0" encoding="UTF-8"?>
<svg id="a" data-name="Ebene 1" xmlns="http://www.w3.org/2000/svg" viewBox="0 0 74 74">
  <polygon points="65.36 40.18 66.3 38.19 64.32 39.14 63.58 37.07 62.84 39.14 60.86 38.21 61.8 40.19 59.74 40.93 61.81 41.66 60.87 43.65 62.85 42.7 63.59 44.77 64.32 42.7 66.31 43.63 65.36 41.65 67.43 40.91 65.36 40.18"/>
  <polygon points="55.72 59.77 56.65 57.79 54.67 58.74 53.93 56.67 53.2 58.74 51.21 57.8 52.16 59.78 50.09 60.52 52.16 61.25 51.23 63.24 53.21 62.29 53.95 64.36 54.68 62.29 56.67 63.23 55.72 61.25 57.79 60.51 55.72 59.77"/>
  <polygon points="29.81 4.84 28.87 6.83 30.86 5.88 31.6 7.95 32.33 5.88 34.31 6.82 33.37 4.83 35.44 4.09 33.36 3.36 34.3 1.38 32.32 2.32 31.58 .25 30.85 2.33 28.86 1.39 29.81 3.37 27.74 4.11 29.81 4.84"/>
  <path d="M34.35,32.54h-2.05v12.27c0,.07.05.11.11.11.05,0,.09-.03.1-.08l2.47-11.52c.09-.4-.22-.78-.63-.78Z"/>
  <path d="M32.79,47.58v3.03l.65.5c.6.46,1.04,1.12,1.22,1.85.05.2.11.48.17.78l.65-.2,1.44-1.16-4.09-5.44-.02.64Z"/>
  <path d="M33.92,53.52c-.14-.71-.48-1.35-.95-1.79l-.18-.17v13.07c1.21-1.33,2.62-2.49,1.99-4.38l-.71-5.68h.02c-.06-.42-.12-.79-.17-1.05Z"/>
  <path d="M70.51,1.05s-.05,0-.07.02l-14.81,11.55-.82.64-13.52,10.54c-1.32,1.32-1.58,3.58-.98,4.18l1.14,2c.32.57.17.94-.04,1.14l-1.33,1.51s-.05.04-.09.04h0l-3.13-.04h0c-.05,0-.1.03-.11.08l-2.61,9.13-.05.05.03.03-.9,3.15s0,.03,0,.04l.13,1.18s.01.04.02.06l4,5.32s.06.05.09.05c.02,0,.05,0,.07-.02l4.68-3.62.63-.51h.06s0-.05,0-.05l.08-.06,8.15-6.61c.97-.79,1.54-1.94,1.56-3.17l.13-2.46s0,0,0,0v-.94s.02-.05.03-.07l.11-.11,1.64-1.42,5.48-4.82c.76-.67,1.19-1.62,1.18-2.61l-.02-2.57v-.94s.01-.07.04-.09l.68-.59,1.49-1.34s0,0,0,0c.9-1,1.39-2.28,1.39-3.61v-4.15s.01-.06.04-.08l.17-.16.08-.07h0s2.86-2.72,2.86-2.72c1.42-1.35,2.29-3.15,2.46-5.07.1-1.12.14-2.18.16-2.65,0-.07-.05-.12-.12-.12ZM54.52,15.98s-.02,0-.03,0h0s.02,0,.03,0ZM47.89,28.69v-1.22c0-1.09.41-2.14,1.08-2.89l2.31-2.1,1.02-.85c0,.22-.02.43-.02.66-.04,1.8-.86,3.49-2.25,4.65-.74.62-1.51,1.24-2.13,1.75ZM38.24,34.6l1.76.02c.59,0,1.16-.26,1.55-.7l1.29-1.47c.86-.9.98-2.23.3-3.43l-1.14-2-.05-.09c0-.36.17-1.15.65-1.68l10.15-7.92c-.01.1-.02.2-.03.31-.09.84-.53,1.61-1.23,2.14l-.76.61-3.13,2.83c-1.06,1.18-1.65,2.69-1.65,4.26v2.9l-9,8.75,1.29-4.53ZM50.75,37.56v.03s0,.03,0,.03c-.01.66-.32,1.28-.84,1.7l-6.96,5.65c.02-.68.31-1.34.8-1.82l7.08-6.96-.07,1.37ZM66.67,7.48l-2.91,2.76-5.11,4.44,1.28,1.47,2.99-2.6v2.53c0,.82-.3,1.62-.84,2.24l-1.39,1.25-.68.59c-.07.06-.13.14-.19.21h0s-3.65,3.17-3.65,3.17l1.28,1.47,1.86-1.62v1.86c.02.43-.17.85-.51,1.14l-5.47,4.81-1.74,1.51s-.05.05-.07.08l-9.13,8.98c-.87.84-1.38,2.02-1.4,3.22l-.03,1.58-3.16,2.45-2.59-3.44-.04-.32.68-2.38,12.03-11.69c.18-.15,1.83-1.49,3.36-2.75,1.82-1.51,2.9-3.74,2.95-6.1.04-1.78.17-3.18.37-4.05h-.03c.03-.15.08-.29.09-.44.16-1.51.28-2.07.33-2.25,0,0,0,0,0,0l1.02-.8.82-.64,11.31-8.82c-.32.8-.81,1.53-1.46,2.14Z"/>
  <path d="M35.2,23.07c-.65-3.17-1.18-6.36-1.75-9.54v7.98s-1.15.55-1.15.55v4.95l2.28-2.03.03-1.17.59-.74Z"/>
  <polygon points="37.41 26.73 36.22 25.55 34.83 25.55 34.82 25.53 32.3 27.76 32.3 27.93 32.3 31.44 34.67 29.43 39.8 29.43 37.41 26.73"/>
  <polygon points="33.36 69.16 34.3 67.17 32.32 68.12 31.58 66.05 30.85 68.12 28.86 67.18 29.81 69.17 27.74 69.91 29.81 70.64 28.87 72.62 30.86 71.68 31.6 73.75 32.33 71.67 34.31 72.61 33.37 70.63 35.44 69.89 33.36 69.16"/>
  <path d="M58.96,36.93c0-1.4-.11-2.78-.31-4.13l-1.77,1.54c.09.85.13,1.72.13,2.59,0,11.83-7.99,21.82-18.86,24.88l.67,1.83c11.61-3.34,20.13-14.04,20.13-26.71Z"/>
  <path d="M31.83,62.77s0,0-.01,0h0s0,0,0,0Z"/>
  <path d="M62.76,28.5l-1.67,1.34c.39,1.63.64,3.31.76,5.02l1.9-.69c-.16-1.94-.49-3.84-.98-5.67Z"/>
  <path d="M51.27,11.17c-4.14-3.24-9.07-5.5-14.45-6.44v1.97c4.8.89,9.2,2.9,12.94,5.75l1.51-1.28Z"/>
  <g>
    <path d="M12.3,54.58l-1.37,1.37c1.1,1.17,2.3,2.24,3.59,3.2l1.39-1.39c-1.3-.95-2.5-2.02-3.6-3.19Z"/>
    <path d="M5.32,36.93c0-4.06.95-7.91,2.62-11.33l-1.44-1.44c-1.99,3.83-3.12,8.17-3.12,12.78,0,6.13,2,11.81,5.38,16.41l1.39-1.39c-3.04-4.24-4.83-9.42-4.83-15.02Z"/>
    <path d="M31.17,9.14c-4.66,0-9.05,1.16-12.91,3.19l1.44,1.44c3.46-1.72,7.35-2.69,11.47-2.69,5.48,0,10.56,1.72,14.75,4.64l1.53-1.3c-4.58-3.32-10.2-5.29-16.28-5.29Z"/>
    <path d="M11.53,17.28l1.37,1.37c1.15-1.15,2.41-2.2,3.77-3.11l-1.39-1.39c-1.34.94-2.6,1.98-3.75,3.13Z"/>
    <path d="M22.32,63.27c2.28.77,4.69,1.25,7.18,1.4l.03-1.95c-1.96-.12-3.85-.47-5.66-1.01l-1.55,1.55Z"/>
  </g>
  <path d="M29.69,44.92c.05,0,.11-.04.11-.11v-12.28h-1.9c-.48,0-.85.45-.74.92l2.44,11.38c.01.06.06.08.1.08Z"/>
  <path d="M18.62,28.96l-4.17-.08-5.72,12.83,3.39,2.42,2.38-4.84h4.74s4.96,5.08,4.96,5.08l2.72,11.57,2.59,2.24v-8.77l-3.71-16.56-7.17-3.9Z"/>
  <polygon points="29.8 23.46 29.8 23.46 27.79 22.53 25.44 18.26 25.44 26.61 26.54 27.31 26.54 29.35 29.8 31.49 29.8 31.48 29.8 23.46"/>
</svg>