<?xml version="1.0" encoding="UTF-8"?>
<svg id="a" data-name="Ebene 1" xmlns="http://www.w3.org/2000/svg" viewBox="0 0 74 74">
  <path d="M34.38,39.58l8.84-8.54v-3.34l-3.04-3h-7.31l-2.85,2.8v2.31h-4.61v-3.73l5.45-5.45h11.34l5.64,5.65v6.09l-8.93,8.64v5.6h-4.52v-7.02ZM33.84,53.42v-2.31l1.57-1.57h2.46l1.57,1.57v2.31l-1.57,1.57h-2.46l-1.57-1.57Z"/>
  <g id="b" data-name="Layer 2">
    <g>
      <polygon points="17.67 12.91 15.65 9.62 1.32 32.98 5.36 32.98 17.67 12.91"/>
      <polygon points="22.68 5.89 24.8 9.34 49.12 9.34 51.24 5.9 22.68 5.89"/>
      <polygon points="56.29 12.85 68.64 32.99 72.68 32.99 58.32 9.55 56.29 12.85"/>
      <polygon points="5.31 40.93 1.26 40.93 15.51 64.16 17.53 60.86 5.31 40.93"/>
      <polygon points="51.55 68.11 49.43 64.66 24.53 64.66 22.41 68.1 51.55 68.11"/>
      <polygon points="56.45 60.9 58.47 64.19 72.74 40.93 68.69 40.93 56.45 60.9"/>
    </g>
  </g>
</svg>